<svg width="119" height="87" viewBox="0 0 119 87" fill="none" xmlns="http://www.w3.org/2000/svg">
<path d="M96.8048 76.8814C96.5015 76.9361 96.1879 76.9471 95.8846 76.9471C91.9901 76.9577 88.0961 76.9035 84.202 76.9687C67.1377 77.2195 50.0743 77.0234 33.0104 77.0996C32.5754 77.0996 32.2921 77.0996 32.3126 76.4561C32.3224 75.8457 32.555 75.8347 32.99 75.8347C43.5903 75.8457 54.1907 75.8457 64.7911 75.8457C75.3714 75.8457 85.9518 75.8457 96.5317 75.8562C96.7443 75.8562 97.0072 75.6927 97.1691 76.0313C97.4119 76.5218 97.331 76.7831 96.8048 76.8814ZM23.4113 67.3071C22.946 66.2929 22.6832 65.355 22.5417 64.4391C22.2784 62.7709 21.6717 61.2116 21.3884 59.5649C21.0851 57.7984 20.5691 56.0971 20.1541 54.3632C20.0532 53.96 20.1039 53.7308 20.5389 53.6651C20.832 53.6219 21.1558 53.6545 21.2367 53.1856C21.2772 52.9458 21.5708 53.011 21.7625 53.011C22.1672 53 22.3593 52.8039 22.3696 52.3459C22.3696 51.8986 22.1267 51.8554 21.8034 51.8333C21.4894 51.8118 21.166 51.7787 21.1558 51.2992C21.1558 51.1788 21.0646 51.0374 20.9636 51.0484C20.3365 51.1357 20.1239 50.6667 19.7903 50.2193C19.2846 49.5432 18.0806 49.8597 17.747 50.6557C17.7168 50.7209 17.7065 50.8518 17.7065 50.8518C16.9277 50.754 16.7761 51.8986 16.0075 51.8333C15.6232 51.8007 15.4711 52.0079 15.4711 52.4442C15.4711 52.8911 15.7139 52.9674 16.0075 52.9894C16.3918 53.022 16.7658 53.011 16.8668 53.5452C16.877 53.6109 16.9985 53.7092 17.0692 53.6982C17.9191 53.6109 17.646 54.2218 17.5446 54.6361C17.2213 56.0535 16.7658 57.4493 16.523 58.8888C16.1992 60.8299 15.5418 62.6616 15.2082 64.5921C15.299 64.8755 15.0868 65.2241 15.3701 65.4754C16.2499 63.0653 16.9985 60.6007 17.7266 58.1255C17.7875 57.9073 17.8787 57.7001 18.0099 57.3405C18.0001 60.9172 18.4249 64.2646 18.8194 67.6125C19.072 68.1141 18.9404 68.3433 18.4044 68.3323C17.312 68.3212 16.2197 68.2997 15.1273 68.3433C14.763 68.3538 14.5709 68.2014 14.4192 67.8959C14.2373 68.2014 13.9437 68.1798 13.6506 68.1798C13.2863 68.1798 13.1751 68.0705 13.3468 67.6782C13.6911 66.8928 13.974 66.0747 14.328 65.3008C14.5508 64.8103 14.5206 64.4176 14.2778 63.9265C13.8428 63.0543 13.438 62.1711 12.8918 61.3751C12.4466 60.7316 12.6895 60.0118 12.8918 59.3578C13.0942 58.6817 13.3975 58.0492 13.6204 57.3837C13.853 56.697 14.0652 56.0971 14.9556 56.217C15.4306 56.2827 15.6232 55.6828 15.8959 55.3232C15.8758 54.9084 15.6027 55.2249 15.4613 55.1487C14.9351 55.5193 14.1056 55.0504 14.0247 54.3086C13.974 53.9053 13.9842 53.502 13.9642 53.0983C13.9339 52.6077 13.8832 52.1278 14.5913 52.204C14.8035 52.2261 14.8947 51.9969 14.9756 51.7787C15.653 50.0232 15.5018 49.7398 13.7921 49.5542C13.5697 49.5327 13.3468 49.4996 13.1347 49.5327C12.7602 49.5873 12.528 49.7178 12.3661 50.1977C11.8297 51.7135 11.2328 53.164 9.80685 54.0798C9.09877 54.5378 8.28972 54.9305 7.77378 55.7044C7.83427 55.8574 7.96592 55.8679 8.08735 55.901C8.60329 55.7917 9.11878 55.6934 9.63517 55.563C10.0092 55.4647 10.0497 55.6613 10.0092 55.9773C9.85756 57.2527 9.69566 58.5182 9.55377 59.7937C9.49329 60.0444 9.39232 60.372 9.564 60.4918C10.2721 61.0154 9.98921 61.7568 9.99899 62.4439C9.99899 62.4871 9.98921 62.5417 9.99899 62.5854C10.3833 64.57 9.58447 66.173 8.60329 67.7434C8.33998 68.1688 8.13805 68.1031 7.8952 67.8307C7.16666 67.0016 6.69119 66.0642 6.69119 64.8645C6.70142 59.5429 6.67117 54.2218 6.6814 48.9002C6.6814 47.5259 7.94591 46.4576 9.55377 46.4245C12.1837 46.3703 14.8239 46.3593 17.4539 46.2826C18.283 46.261 19.3251 46.7084 19.9015 46.0102C20.4175 45.3888 20.7208 44.4729 21.1358 43.6875C21.7625 42.4882 22.3896 41.2885 22.8958 40.0125C22.9865 39.7948 23.0977 39.5982 23.3912 39.4237C23.5731 48.7036 23.5634 57.9183 23.4113 67.3071ZM22.491 68.2229C21.5605 68.1903 20.6398 68.2014 19.7094 68.2124C19.2846 68.2124 19.1227 68.0268 19.1632 67.5689C19.3251 65.6499 19.4768 63.7304 19.6284 61.8114C19.7192 60.6117 19.8206 59.423 19.9117 58.2238C19.9522 58.2127 19.9927 58.2017 20.0332 58.1801C20.4072 59.2705 20.8524 60.3283 21.1558 61.4403C21.702 63.4576 22.3794 65.4207 23.0069 67.3944C23.2093 68.0268 23.0977 68.245 22.491 68.2229ZM13.0537 65.2025C12.8816 66.0421 12.7806 66.8818 12.7201 67.7324C12.6997 68.0052 12.6797 68.2229 12.3154 68.2229C11.223 68.2014 10.1204 68.2124 8.95733 68.2124C9.08898 67.7108 9.41234 67.5689 9.64495 67.3402C9.74636 67.2419 9.8371 67.1325 9.94829 67.0673C11.243 66.2493 12.0218 65.1263 11.7287 63.3598H11.9209C12.2749 63.7741 12.6187 64.1994 12.983 64.6031C13.1449 64.7882 13.0942 64.9954 13.0537 65.2025ZM116.499 41.79C115.75 41.1576 115.022 40.4815 114.263 39.8495C113.393 39.1187 112.564 38.6823 111.411 38.6934C104.988 38.748 98.575 38.726 92.152 38.715C91.1303 38.715 90.0989 38.7586 88.9456 38.5625C89.4211 39.206 89.7044 39.9037 90.0887 40.318C90.7763 41.0703 91.201 41.9866 91.7882 42.7826C92.4656 43.6985 93.1736 44.342 94.3674 44.1564C95.1058 44.0476 95.8743 44.189 96.6229 44.1454C97.1384 44.1128 97.2905 44.2763 97.2905 44.8541C97.27 52.4006 97.27 59.9356 97.2905 67.4816C97.2905 68.0158 97.1793 68.1688 96.6736 68.1577C93.2848 68.1362 89.8965 68.1577 86.5082 68.1577C68.6651 68.1798 50.8229 68.1903 32.9802 68.2229C32.4038 68.2229 32.2516 68.0815 32.2516 67.449C32.2721 57.5692 32.2721 47.6899 32.2619 37.8101C32.2619 37.3627 32.2926 36.981 32.6564 36.6651C33.779 35.6945 34.6895 34.4622 35.7516 33.4154C36.2271 32.9465 36.6923 32.4339 37.1375 31.9213C37.8051 31.1689 38.4318 30.3729 39.1604 29.6968C39.7368 29.1516 40.2625 28.5407 40.7887 27.9629C41.4056 27.2653 42.0532 26.5891 42.6901 25.913C43.6815 24.8552 44.6627 23.7864 45.6643 22.7396C46.8577 21.4968 48.0208 20.2208 49.1741 18.9448C49.6593 18.4106 50.1753 17.887 50.6707 17.3634C51.369 16.611 52.0162 15.804 52.7345 15.0737C53.2602 14.5391 53.7762 13.9939 54.2619 13.4377C55.324 12.2168 56.4671 11.0718 57.5595 9.88306C58.4797 8.87993 59.4204 7.89838 60.3611 6.91682C61.5544 5.66291 62.718 4.37591 63.9215 3.13302C64.7711 2.26031 65.6006 1.35548 66.5213 0.395988C66.1063 0.341324 65.8127 0.243027 65.5801 0.472229C64.397 1.6499 62.8492 2.15147 61.5042 3.02418C60.1183 3.91798 58.5606 4.51784 57.1747 5.43418C56.9928 5.55406 56.8109 5.69552 56.6183 5.80437C55.1519 6.63343 53.5538 7.18967 52.1679 8.20335C51.6319 8.59606 50.8731 8.66176 50.3981 9.04344C49.5784 9.70853 48.6684 10.1665 47.7881 10.679C45.1484 12.2168 42.4272 13.5906 39.7875 15.139C37.3799 16.5458 34.9021 17.7998 32.5149 19.2503C30.6638 20.3733 28.7014 21.2565 26.8907 22.4452C25.3531 23.4594 23.6034 24.0156 22.0965 25.1166C20.9739 25.9346 19.608 26.3163 18.4551 27.1123C17.4334 27.8215 16.3108 28.301 15.2589 28.9445C14.1461 29.6311 12.983 30.1984 11.8502 30.8529C10.788 31.4633 9.73613 32.0958 8.64376 32.6521C7.12618 33.426 5.63974 34.2877 4.1524 35.1383C3.08049 35.7492 2.01836 36.3922 0.956234 37.0137C0.966464 37.0904 0.976694 37.1556 0.986924 37.2318H14.1866C17.0896 37.2318 19.9825 37.2539 22.8855 37.2755C23.0977 37.2755 23.381 37.123 23.5024 37.4936C23.735 38.2354 23.462 38.6608 22.7539 38.6608C22.1774 38.6608 21.6006 38.6497 21.0246 38.6608C16.8165 38.726 12.6187 38.5409 8.41114 38.8348C5.86213 39.0204 3.94025 40.329 2.3217 42.3463C1.78575 43.0224 1.39123 43.7858 0.976696 44.5271C0.35979 45.618 0.0764627 46.8608 0.0462179 48.1258C-0.0351763 53.2949 0.00574457 58.4525 0.0560044 63.6105C0.0662342 64.8208 -0.0752048 66.0532 0.197888 67.2419C0.470981 68.398 0.390031 69.6955 1.30004 70.6003C1.70479 71.0041 1.79597 71.6581 2.23096 72.0509C2.87811 72.6176 3.39405 73.3158 4.06167 73.872C5.00237 74.657 6.02402 75.2458 7.15687 75.4856C8.61351 75.791 10.1004 75.7694 11.5873 75.791C15.3701 75.8347 19.153 75.8893 22.946 75.933C23.2596 75.933 23.4922 75.9004 23.462 76.4019C23.4419 76.8272 23.3405 76.9797 22.9358 76.9797C22.0965 76.9797 21.2572 77.056 20.4175 77.056C14.0144 77.067 7.61188 77.0886 1.21954 77.078C0.55193 77.078 0.410051 77.2741 0.450525 77.9392C0.50123 78.7026 0.956234 78.659 1.4317 78.659H24.9386C47.8793 78.6484 70.8098 78.6264 93.7501 78.6153C98.7774 78.6153 103.804 78.5827 108.821 78.6043C109.378 78.6043 109.469 78.4082 109.469 77.874C109.469 77.3288 109.408 77.056 108.801 77.0886C107.648 77.1432 106.495 77.078 105.352 77.1212C104.866 77.1322 104.755 76.9577 104.765 76.4671C104.765 75.9871 104.866 75.791 105.352 75.8126C106.545 75.8562 107.739 75.8126 108.943 75.8347C109.348 75.8457 109.469 75.7148 109.469 75.2674C109.448 73.0976 109.448 70.9274 109.469 68.7466C109.469 68.3433 109.368 68.2124 108.983 68.2229C107.769 68.245 106.545 68.2124 105.332 68.245C104.877 68.256 104.775 68.092 104.775 67.6341C104.785 60.0008 104.785 52.3565 104.775 44.7237C104.775 44.2437 104.917 44.1348 105.342 44.1348C107.557 44.1564 109.772 44.1564 111.987 44.1454C114.172 44.1238 116.367 44.2437 118.552 44.0039C118.602 43.9056 118.653 43.7963 118.714 43.6985C118.046 42.9567 117.237 42.4225 116.499 41.79Z" fill="#574900"/>
<path d="M35.7402 38.8459C35.1433 38.8565 34.9814 39.0094 34.9917 39.6639C35.0526 48.3982 35.1029 57.1329 35.1233 65.8677C35.1233 66.5874 35.255 66.8166 35.9626 66.8166C45.198 66.8708 54.4222 66.8272 63.6575 66.773C63.799 66.773 64.0014 66.8602 64.0823 66.6857C64.1935 66.4675 64.0316 66.2714 63.9102 66.1184C62.9495 64.8645 62.6052 63.2179 61.685 61.9314C61.3612 61.484 61.1085 61.1349 60.4814 61.157C55.2317 61.2658 49.9922 61.1459 44.7425 61.3641C44.4187 61.3751 44.2568 61.2989 44.2368 60.9278C44.1154 59.2159 44.1456 57.493 44.1963 55.7807C44.2066 55.552 44.2568 55.4537 44.5504 55.4537C48.7784 55.4757 53.0065 55.4647 57.2345 55.4757C57.6793 55.4757 57.73 55.3012 57.7198 54.8975C57.6998 53.469 57.6895 52.0295 57.7198 50.6011C57.73 50.0669 57.5481 49.9796 57.1131 49.9906C55.8486 50.0233 54.5943 50.0232 53.3298 50.0232C50.4472 50.0343 47.5748 50.0448 44.6918 50.0448C44.4694 50.0448 44.1354 50.2083 44.1354 49.6957C44.1456 47.864 44.1354 46.0318 44.1354 44.2437H48.1815C52.6324 44.2437 57.0828 44.2437 61.5333 44.2653C61.9683 44.2653 62.2311 44.2437 62.2209 43.6328C62.1907 42.248 62.2009 40.8632 62.2414 39.4784C62.2512 38.9548 62.0692 38.8565 61.6343 38.8565C53.0065 38.8133 44.368 38.7586 35.7402 38.8459Z" fill="#574900"/>
<path d="M78.2543 44.3201C81.0662 44.2549 83.878 44.2549 86.6797 44.2329C87.5394 44.2218 88.3996 44.2329 89.4209 44.2329C88.9054 43.3932 88.5713 42.5973 88.0856 42.0521C87.4589 41.3539 86.8518 40.6126 86.4573 39.7945C86.053 38.9659 85.5468 38.7914 84.829 38.7588C84.5657 38.7478 84.3028 38.7152 84.0297 38.7152C80.4897 38.7152 76.9493 38.6825 73.4093 38.7257C72.1346 38.7478 70.8403 38.7804 69.6265 39.2824C67.7953 40.0453 65.9953 40.8633 65.0542 42.9243C64.6699 43.7529 64.6397 44.6908 64.9328 45.4978C65.3375 46.6208 66.248 47.3952 67.057 48.1912C67.7246 48.8457 68.3215 49.576 68.9487 50.2632C69.3632 50.7105 69.8894 51.0486 70.2229 51.5828C70.6682 52.2915 71.3051 52.8257 71.8717 53.3819C72.5496 54.047 73.1465 54.8103 73.8141 55.4864C74.8557 56.5227 75.7457 57.7219 76.7269 58.8344C77.2024 59.3796 77.1819 59.7723 76.6562 60.2518C75.8067 61.0152 74.8153 61.2008 73.7531 61.1897C70.8096 61.1461 67.8665 61.0919 64.923 61.0588C64.6801 61.0588 64.4373 61.0698 64.1944 61.1135C64.053 61.1351 63.8711 61.1897 64.0023 61.4405C64.2958 62.0404 64.5182 62.6839 64.8723 63.2291C65.4892 64.167 65.8637 65.2353 66.4908 66.1622C66.7537 66.5439 66.8849 66.8494 67.4008 66.8494C70.9008 66.8168 74.3901 66.8494 77.89 66.8168C78.9219 66.8057 79.9636 66.7947 81.0057 66.6638C82.4823 66.4782 83.7971 65.6717 85.264 65.4645C85.3952 65.4425 85.3449 65.3006 85.3649 65.29C85.8809 65.0392 86.2145 64.5487 86.6192 64.167C87.378 63.4362 88.0051 62.553 87.9847 61.3643C87.9544 60.0773 87.5804 58.9327 86.6699 58.0384C86.2451 57.6241 85.8204 57.2093 85.4054 56.7734C83.4733 54.7125 81.5314 52.6621 79.6197 50.5902C78.4264 49.2926 77.1717 48.0387 76.0998 46.6103C75.8165 46.2286 75.756 45.9121 76.0291 45.4105C76.5752 44.451 77.4145 44.3417 78.2543 44.3201Z" fill="#574900"/>
<path d="M64.9829 4.44143C64.801 4.64858 64.8312 4.77948 64.9731 4.96505C65.3774 5.49923 65.7719 6.02285 66.1664 6.56805C67.0364 7.75675 67.906 8.93443 68.7457 10.1447C69.2212 10.8424 69.7064 11.5406 70.1414 12.2493C70.4754 12.7945 70.8295 13.4049 71.2138 13.8412C72.2857 15.0736 73.105 16.5131 74.1368 17.7564C74.5314 18.2359 74.7537 18.8248 75.1385 19.3158C76.0182 20.4278 76.8985 21.5402 77.6568 22.7615C77.9601 23.2521 78.183 23.8625 78.6278 24.2116C79.2349 24.6916 79.5182 25.4549 79.9732 26.0438C80.4184 26.6106 80.8734 27.2761 81.3084 27.8865C82.2087 29.1078 83.0479 30.3838 83.9282 31.6267C84.3427 32.2155 84.7572 32.8264 85.1824 33.3716C85.8398 34.2223 86.4162 35.1381 87.0434 36.0104C87.5086 36.6539 87.9134 37.2648 88.9048 37.2321C91.5548 37.1338 94.215 37.1991 96.8752 37.1991V37.1338H105.442C105.624 37.1338 105.897 37.2211 105.928 36.9267C105.938 36.7522 105.877 36.5124 105.655 36.4141C104.846 36.0324 104.188 35.3784 103.47 34.8547C101.791 33.6224 100.334 32.063 98.6249 30.8307C97.3502 29.9148 96.2681 28.7046 95.004 27.734C94.2959 27.1994 93.6385 26.5453 92.93 26.0112C91.5445 24.9639 90.28 23.7647 88.9248 22.6848C87.4784 21.5292 85.9813 20.4057 84.6767 19.0209C83.8574 18.1597 82.7851 17.6361 81.8951 16.8401C80.4482 15.5425 78.9311 14.3318 77.4446 13.0999C76.3523 12.1836 75.219 11.3224 74.1973 10.2972C73.6511 9.75199 72.9635 9.29406 72.3364 8.78146C70.4954 7.29834 68.675 5.78262 66.8643 4.25586C65.8529 3.39466 65.8426 3.4383 64.9829 4.44143Z" fill="#574900"/>
<path d="M63.1411 14.9422C64.0311 15.1277 65.164 13.5251 65.1337 12.6857C65.083 11.3774 64.1525 10.6142 63.1006 10.5486C62.1902 10.4944 61.1383 11.759 61.1485 12.7619C61.1485 13.7538 62.2409 14.9422 63.1411 14.9422Z" fill="#574900"/>
<path d="M20.447 84.2529C19.8399 84.2313 19.3644 83.5878 19.3547 82.8024C19.3547 82.0174 19.8808 81.3739 20.5178 81.3739C21.1956 81.3849 21.4585 81.7556 21.4482 82.6719C21.4282 83.7839 21.1146 84.2745 20.447 84.2529ZM22.0856 82.2572C22.0656 80.8944 22.0656 80.916 20.8011 80.8177C20.1739 80.7635 19.6478 80.7961 19.1723 81.3303C18.7475 81.8103 18.8387 82.3881 18.7982 82.9333C18.7173 84.2419 19.577 84.9832 20.7606 84.6782C20.9527 84.6346 21.1751 84.3622 21.357 84.6456C21.5292 84.8964 21.3673 85.1472 21.2765 85.3869C21.1044 85.8012 20.7708 85.9758 20.3763 85.9758C20.0423 85.9758 19.7185 85.9211 19.3849 85.8775C19.2132 85.8559 19.0006 85.8012 18.9299 86.0304C18.8592 86.2596 19.0509 86.3574 19.223 86.4227C20.3456 86.8806 21.5999 86.6629 21.9642 85.0925C22.1363 84.3622 22.0553 83.6204 22.0754 82.8896C22.0958 82.6825 22.0958 82.4753 22.0856 82.2572Z" fill="#574900"/>
<path d="M69.8799 83.8496C69.3844 84.5147 68.4739 84.3622 68.1808 83.5768C67.8063 82.5516 68.1604 81.5048 68.9191 81.396C69.8394 81.254 70.2441 81.6794 70.2135 82.8355C70.2441 83.1515 70.1329 83.5221 69.8799 83.8496ZM70.1427 81.0689C70.0822 81.1126 69.8999 81.0033 69.7887 80.9596C68.7368 80.4691 67.9175 80.8397 67.5937 82.0064C67.3611 82.8244 67.2904 83.6751 67.9277 84.3402C68.5042 84.94 69.1922 84.929 69.8701 84.5037C70.1329 84.3402 70.2339 84.4164 70.2237 84.7218C70.2237 85.0163 70.153 85.267 69.9506 85.4963C69.4146 86.1067 68.7875 86.0741 68.1199 85.9105C67.9784 85.8775 67.7961 85.736 67.7054 85.9321C67.6142 86.1393 67.7054 86.3901 67.8873 86.4884C68.5246 86.8374 69.8901 86.5867 70.3046 85.9762C70.8713 85.1361 70.6889 84.2093 70.7499 83.3044C70.7499 82.7372 70.7903 82.1594 70.7396 81.5921C70.7094 81.2761 70.9015 80.4911 70.1427 81.0689Z" fill="#574900"/>
<path d="M49.6285 81.8323C49.3958 81.8649 49.1837 81.9196 49.1837 82.2361C49.1837 82.5631 49.4261 82.5195 49.6187 82.5305C50.023 82.5415 50.2961 82.6719 50.2658 83.1956C50.2454 83.6751 50.2049 84.0788 49.6387 84.1771C48.6677 84.3402 48.0304 83.9916 47.5247 82.9553C46.9078 81.6798 47.8382 79.9133 49.1432 79.8802C49.4972 79.8697 49.8411 79.9349 50.1947 79.9675C50.357 79.9785 50.5794 80.273 50.6603 79.8913C50.7311 79.5969 50.6096 79.3245 50.3365 79.2914C49.8411 79.2262 49.3554 79.019 48.8394 79.1715C47.3223 79.6189 46.5333 81.1562 46.857 82.8249C47.0287 83.7297 47.3628 84.3732 48.2123 84.5914C48.5766 84.6787 48.9511 84.7003 49.3251 84.6892C50.7818 84.6677 50.7915 84.6456 50.7915 83.0757C50.7915 81.6688 50.7915 81.6688 49.6285 81.8323Z" fill="#574900"/>
<path d="M106.648 84.2638C105.95 84.2859 105.656 83.8385 105.647 82.7702C105.636 81.6793 105.849 81.3853 106.638 81.3743C107.315 81.3633 107.77 81.9195 107.75 82.726C107.741 83.5661 107.245 84.2533 106.648 84.2638ZM108.276 79.3134C108.276 79.1062 108.226 78.9422 107.973 78.9643C107.73 78.9859 107.781 79.1825 107.77 79.335C107.761 79.5968 107.761 79.8586 107.761 80.1199C107.761 80.6656 107.781 81.1125 107.002 80.8507C106.274 80.5999 105.566 80.9054 105.171 81.6251C104.736 82.41 104.807 83.2828 105.212 84.0787C105.515 84.6676 106.233 84.8853 106.981 84.6676C107.285 84.5803 107.538 84.4273 107.882 84.6565C108.216 84.8747 108.276 84.5256 108.276 84.2533C108.287 83.4458 108.276 82.6282 108.276 81.8212H108.266C108.276 80.9816 108.276 80.153 108.276 79.3134Z" fill="#574900"/>
<path d="M35.9642 84.2313C35.2054 84.1877 34.9528 83.795 34.8919 82.8244C34.8314 81.8323 35.2766 81.3634 36.1057 81.3744C36.8542 81.3849 37.1375 81.734 37.1273 82.6719C37.1171 83.6641 36.6825 84.2749 35.9642 84.2313ZM37.633 79.3351C37.633 79.1826 37.6837 78.9754 37.4409 78.9644C37.178 78.9534 37.1678 79.1495 37.1678 79.3461C37.158 79.793 37.158 80.2509 37.158 80.6983C37.158 81.0143 37.1478 81.2109 36.763 80.9817C35.4785 80.2073 34.6192 81.1888 34.3861 82.2356C34.2042 83.0642 34.3359 83.8496 34.9426 84.4495C35.499 85.0052 36.1057 84.8417 36.7025 84.4821C36.8542 84.3948 36.9859 84.2313 37.178 84.5257C37.4209 84.8854 37.6228 84.7655 37.633 84.3402C37.6432 83.5116 37.633 82.672 37.633 81.8434C37.6432 81.0037 37.6432 80.1636 37.633 79.3351Z" fill="#574900"/>
<path d="M26.7595 82.0612C25.8998 82.0612 26.5776 81.3199 26.3045 81.0254C26.4664 80.5781 26.0314 79.8147 26.8507 79.8147C27.4676 79.8147 28.2669 80.2295 28.2264 80.9161C28.1957 81.4834 27.4979 82.0612 26.7595 82.0612ZM27.0531 79.2589C26.8102 79.2479 26.5674 79.2589 26.3245 79.2589C25.9807 79.2589 25.8086 79.4225 25.8086 79.8257C25.8188 80.5455 25.8086 81.2542 25.8086 81.9739H25.8291V84.264C25.8291 84.4491 25.8188 84.6894 26.0719 84.6783C26.2943 84.6678 26.3245 84.4491 26.3348 84.253C26.345 84.0679 26.365 83.8713 26.3348 83.6862C26.2236 82.9665 26.4157 82.6395 27.1745 82.6611C27.7914 82.6826 28.4181 82.4318 28.6512 81.7016C29.1062 80.2295 28.4688 79.2915 27.0531 79.2589Z" fill="#574900"/>
<path d="M10.6145 82.1811C10.8271 82.0065 10.989 81.7773 11.1812 81.5812C11.3836 81.3851 11.5655 81.1779 11.626 80.8068C10.6755 80.9813 10.2507 81.7557 9.58311 82.5627C9.58311 81.363 9.59289 80.3925 9.57288 79.422C9.57288 79.2258 9.54219 78.964 9.26954 78.9535C8.996 78.9425 9.01646 79.2043 9.01646 79.3673C9.00623 81.0139 9.00623 82.6606 9.01646 84.2966C9.01646 84.4602 9.00623 84.7215 9.27977 84.6999C9.50216 84.6889 9.57288 84.4928 9.57288 84.2966C9.58311 83.8713 9.57288 83.435 9.57288 82.8787C11.2012 84.7436 11.2012 84.7436 12.0005 84.6126C11.4743 84.1001 11.0598 83.6531 10.6048 83.2499C10.1898 82.8787 10.1698 82.5517 10.6145 82.1811Z" fill="#574900"/>
<path d="M102.591 82.4213C102.267 82.323 101.721 82.5958 101.711 82.0723C101.701 81.5272 102.197 81.3748 102.682 81.3637C103.077 81.3637 103.4 81.451 103.41 81.9524C103.41 82.6941 102.864 82.2799 102.591 82.4213ZM102.531 80.6988C101.873 80.8076 101.266 81.1892 101.064 81.8652C100.831 82.6178 100.761 83.4899 101.296 84.1658C101.792 84.7871 102.48 84.9726 103.218 84.7545C103.471 84.6783 103.805 84.6126 103.795 84.1548C103.34 84.0786 102.895 84.2967 102.429 84.1984C101.924 84.0891 101.651 83.7842 101.671 83.2281C101.701 82.6504 102.126 82.8355 102.429 82.8249C102.915 82.8029 103.4 82.8249 103.886 82.8139C103.997 82.8139 104.139 82.8686 104.189 82.661C104.402 81.822 103.38 80.5679 102.531 80.6988Z" fill="#574900"/>
<path d="M6.14586 84.2313C5.73133 84.2419 5.32658 84.1115 5.38707 83.588C5.45823 82.9446 5.97418 82.8468 6.338 82.8032C6.773 82.8032 7.08656 82.7596 7.08656 83.2284C7.08656 83.7515 6.64179 84.2313 6.14586 84.2313ZM6.58085 80.6991C6.05468 80.5788 5.37729 80.9604 5.25586 81.4949C5.62992 81.4513 6.00442 81.3967 6.36825 81.3751C6.72229 81.353 6.9856 81.5712 7.02607 81.9307C7.07633 82.3128 6.69205 82.2361 6.4999 82.3344C6.26728 82.4432 5.99419 82.4542 5.74111 82.5194C5.06372 82.6939 4.70967 83.25 4.85111 83.9149C5.00323 84.5803 5.6099 84.8963 6.31799 84.7002C6.57107 84.6235 6.80369 84.3948 7.12704 84.6019C7.59227 84.9073 7.72393 84.5473 7.73416 84.1441C7.75417 83.4571 7.7644 82.7596 7.73416 82.0726C7.69324 81.4182 7.17774 80.8406 6.58085 80.6991Z" fill="#574900"/>
<path d="M40.3844 82.4218C40.1114 82.2909 39.5754 82.6509 39.5754 82.0296C39.5856 81.4515 40.0509 81.3863 40.4956 81.3752C40.8902 81.3642 41.234 81.473 41.234 81.9639C41.2242 82.6509 40.698 82.3129 40.3844 82.4218ZM40.8497 80.7429C40.2123 80.4922 39.7271 80.8738 39.2818 81.3752C38.6147 82.1495 38.5231 83.2396 39.0999 84.1006C39.454 84.6351 40.8092 84.9621 41.4163 84.6462C41.5982 84.5589 41.7197 84.3949 41.6894 84.1006C41.1028 84.1442 40.5766 84.2751 40.0406 84.1442C39.5954 84.0354 39.5447 83.6318 39.5042 83.2722C39.454 82.847 39.8182 82.869 40.0607 82.858C40.5868 82.8144 41.1228 82.7923 41.6489 82.8144C42.023 82.836 42.043 82.6289 41.9928 82.3455C41.8816 81.5934 41.5071 80.9936 40.8497 80.7429Z" fill="#574900"/>
<path d="M66.32 81.8545C66.2595 81.0587 65.3086 80.4811 64.6512 80.8516C64.3679 81.0046 64.1251 81.146 63.8217 80.9389C63.5486 80.7534 63.4477 80.9279 63.3765 81.2006C63.2448 81.7457 63.3262 82.2908 63.3058 82.8358C63.3058 83.2611 63.2755 83.6973 63.316 84.1221C63.3365 84.3838 63.3463 84.7654 63.7203 84.7218C64.0948 84.6782 64.0339 84.3296 64.0036 84.0458C63.9125 83.3263 64.0241 82.6287 64.1353 81.9307C64.186 81.5822 64.3679 81.4514 64.6512 81.3967C65.2984 81.2769 65.6017 81.5386 65.6627 82.3234C65.7031 82.8905 65.6627 83.4682 65.6827 84.0348C65.6929 84.2966 65.6222 84.6566 66.0167 84.6892C66.4512 84.7218 66.3605 84.3186 66.3605 84.0789C66.3908 83.3263 66.3805 82.5851 66.32 81.8545Z" fill="#574900"/>
<path d="M53.5849 81.3751C53.9994 81.3751 54.3534 81.4513 54.3334 82.0074C54.313 82.716 53.777 82.2145 53.5849 82.4327C53.2308 82.3018 52.6846 82.6182 52.6744 82.0511C52.6544 81.5496 53.1094 81.3751 53.5849 81.3751ZM53.3015 82.8143H55.1527C55.0615 81.9092 54.7582 81.2989 54.1817 80.8521C53.8984 80.634 53.5746 80.6119 53.241 80.7648C52.1487 81.2768 51.8551 81.7783 51.9058 83.076C51.9663 84.4495 53.3927 85.2999 54.5153 84.6129C54.647 84.5367 54.8084 84.4279 54.7479 84.2313C54.6772 84.0027 54.4851 84.1225 54.3534 84.1441C53.9589 84.2208 53.5648 84.2534 53.1699 84.1551C52.7349 84.0353 52.5934 83.6753 52.6037 83.2395C52.6339 82.738 52.9982 82.8143 53.3015 82.8143Z" fill="#574900"/>
<path d="M75.8666 79.8037C76.2411 79.7931 76.6454 79.902 77.0706 79.4877C76.1802 79.1276 75.3711 79.3021 74.5923 79.2585C74.2685 79.2369 74.329 79.4877 74.329 79.6948C74.329 80.5781 74.3192 81.4613 74.329 82.3446C74.3393 83.0097 74.2685 83.6858 74.4202 84.3398C74.4607 84.5254 74.4607 84.7436 74.7236 84.711C74.9566 84.6784 74.9766 84.4928 74.9766 84.2856C74.9766 83.9802 74.9864 83.6642 74.9864 83.3588C74.9864 82.3993 74.9864 82.4208 75.8969 82.3882C76.2309 82.3772 76.7971 82.6064 76.7971 82.0176C76.7873 81.4613 76.2411 81.7773 75.9373 81.7121C75.6643 81.6469 75.2697 81.843 75.1385 81.5812C74.9464 81.1669 74.9157 80.6654 75.0878 80.1964C75.2293 79.7821 75.5531 79.8147 75.8666 79.8037Z" fill="#574900"/>
<path d="M95.7739 84.2419C95.3896 84.2314 95.0658 84.1221 95.0458 83.6317C95.0356 83.217 95.592 82.8354 96.1987 82.8138C96.482 82.8028 96.7346 82.8354 96.7551 83.228C96.7853 83.7295 96.3001 84.2314 95.7739 84.2419ZM95.1365 80.9495C94.9648 81.0477 94.8127 81.1786 94.8737 81.3857C94.9546 81.658 95.177 81.484 95.3189 81.4619C95.6929 81.4073 96.0572 81.2874 96.4215 81.5166C96.5829 81.6149 96.7044 81.7778 96.7044 81.9744C96.7044 82.2141 96.5122 82.2361 96.3299 82.2798C95.9256 82.3665 95.511 82.4758 95.1165 82.6067C94.5601 82.8028 94.5094 83.3479 94.5601 83.8277C94.6108 84.2966 94.8029 84.7108 95.3998 84.7218C95.8344 84.7324 96.2898 84.3838 96.6136 84.5583C97.372 84.951 97.2505 84.4054 97.271 83.9696C97.2808 83.6858 97.271 83.4025 97.271 83.1082C97.271 82.8028 97.2403 82.4869 97.271 82.1815C97.4022 80.9605 96.2089 80.3392 95.1365 80.9495Z" fill="#574900"/>
<path d="M78.8112 84.2423C78.5074 84.2097 78.1738 84.166 78.1534 83.6751C78.1333 83.2283 78.6493 82.8357 79.256 82.8141C79.59 82.8031 79.8328 82.8904 79.8426 83.2935C79.8528 83.7518 79.3471 84.2207 78.8112 84.2423ZM79.6812 80.9061C79.1145 80.7316 78.5581 80.688 78.0422 81.0586C77.9212 81.1463 77.8602 81.2988 77.931 81.4296C77.9919 81.5495 78.1231 81.4948 78.2347 81.4733C78.6088 81.3966 78.9731 81.3098 79.3471 81.4186C79.5998 81.4948 79.7821 81.6693 79.7821 81.9747C79.7821 82.3017 79.5193 82.2254 79.3471 82.2801C79.0336 82.3669 78.7 82.4325 78.3962 82.5744C78.1636 82.6833 77.7895 82.6181 77.6983 82.9124C77.5467 83.3813 77.4355 83.9043 77.7086 84.3621C77.9612 84.7873 78.4167 84.8094 78.8414 84.7437C79.1043 84.7001 79.3978 84.482 79.5998 84.5692C80.5102 84.9618 80.3079 84.2423 80.3488 83.7629C80.3688 83.5443 80.3488 83.3376 80.3488 83.1195H80.3586C80.3385 82.7159 80.3181 82.3127 80.2776 81.909C80.2371 81.4512 80.146 81.048 79.6812 80.9061Z" fill="#574900"/>
<path d="M91.7172 80.8518C91.5553 80.917 91.3427 81.1131 91.2418 81.0589C90.2908 80.5354 90.5946 81.3969 90.5337 81.8005C90.483 82.1275 90.5234 82.4654 90.5234 82.8029H90.4425C90.4425 83.2286 90.4123 83.6644 90.4527 84.0896C90.4732 84.3293 90.382 84.733 90.8068 84.7109C91.1706 84.6894 91.0901 84.3404 91.0999 84.1007C91.1306 83.5335 91.1203 82.9559 91.1306 82.3892C91.1506 81.8547 91.2315 81.3969 91.8889 81.3748C92.5058 81.3532 92.6677 81.7785 92.7891 82.2905C92.931 82.9233 92.9106 83.5666 92.9208 84.2095C92.9208 84.4386 92.9408 84.6673 93.1939 84.6999C93.5177 84.744 93.467 84.4386 93.4772 84.2531C93.5479 83.4463 93.5075 82.6289 93.406 81.8221C93.3051 80.9501 92.496 80.5138 91.7172 80.8518Z" fill="#574900"/>
<path d="M16.0979 80.819C15.8755 80.9062 15.5718 81.1354 15.4401 81.0587C14.6515 80.5898 14.8437 81.2552 14.8232 81.6478C14.8032 82.029 14.8134 82.4106 14.8134 82.7922C14.8134 83.2174 14.8032 83.6536 14.8134 84.0789C14.8134 84.3075 14.7525 84.6565 15.0256 84.6676C15.3494 84.6781 15.2889 84.2965 15.3089 84.0568C15.3596 83.4245 15.2684 82.7811 15.3898 82.1378C15.501 81.5491 15.8248 81.3751 16.3306 81.3861C16.8363 81.3966 16.9879 81.702 17.0791 82.1819C17.2103 82.8904 17.1801 83.599 17.2005 84.3075C17.2103 84.5257 17.2815 84.7112 17.4936 84.7112C17.7062 84.7112 17.696 84.4931 17.696 84.3401C17.7365 83.4571 17.7565 82.574 17.6151 81.713C17.4532 80.8079 16.8767 80.5026 16.0979 80.819Z" fill="#574900"/>
<path d="M4.99083 79.4439C3.95895 79.1495 2.95776 79.2693 1.96635 79.2914C1.82491 79.2914 1.643 79.335 1.62254 79.5422C1.60252 79.8035 1.79422 79.8366 1.97658 79.8582C2.08777 79.8692 2.19897 79.8913 2.31061 79.8802C2.77584 79.8145 2.89682 80.0327 2.88704 80.5233C2.85679 81.712 2.87681 82.9117 2.88704 84.1004C2.88704 84.3401 2.80609 84.7108 3.1499 84.7329C3.5244 84.7544 3.48348 84.3838 3.48348 84.1004C3.48348 82.9553 3.53419 81.8103 3.48348 80.6652C3.45324 80.0111 3.56443 79.6836 4.2525 79.8035C4.50514 79.8366 4.79869 79.8476 4.99083 79.4439Z" fill="#574900"/>
<path d="M83.2008 82.7376C82.8975 82.6503 82.6141 82.552 82.4015 82.2797C82.2703 82.1163 82.1489 81.9418 82.2299 81.7016C82.3108 81.4403 82.5132 81.4403 82.7151 81.4403C82.9175 81.4403 83.1096 81.4509 83.312 81.4403C83.4739 81.4293 83.6963 81.4729 83.7368 81.2112C83.7772 80.9499 83.5851 80.8516 83.3929 80.7644C82.8165 80.5242 82.3108 80.7423 81.8553 81.0803C81.178 81.5928 81.2282 82.3344 81.987 82.7265C82.2703 82.8684 82.5132 83.0755 82.7858 83.2064C83.0994 83.3478 83.1399 83.6096 83.0896 83.9039C83.0287 84.2529 82.756 84.1551 82.5634 84.1657C82.1894 84.1657 81.8149 84.122 81.3799 84.1005C81.7949 84.9509 82.6546 85.0161 83.4534 84.3728C83.767 84.122 83.8782 83.8497 83.8279 83.4677C83.7772 83.0755 83.5646 82.8358 83.2008 82.7376Z" fill="#574900"/>
<path d="M100.143 84.2201C99.4456 84.3184 99.5368 83.7948 99.5163 83.3369C99.4958 82.9331 99.466 82.5299 99.4354 82.1266C99.4051 81.6902 99.3446 81.2433 99.9918 81.3632C100.123 81.3848 100.336 81.3196 100.325 81.1124C100.316 80.9158 100.113 80.8396 99.9815 80.8506C99.4456 80.8943 99.4354 80.5236 99.4251 80.1199C99.4251 79.9674 99.466 79.7271 99.2534 79.7271C99.132 79.7271 98.9599 79.7928 98.8994 79.989C98.778 80.3706 98.7677 80.8396 98.3127 81.0036C98.2318 81.0357 98.2113 81.1997 98.3127 81.2323C99.0311 81.5157 98.7073 82.1702 98.7575 82.5083C98.778 83.0535 98.7677 83.4457 98.8185 83.8169C98.9296 84.6018 99.3847 84.9073 100.093 84.6996C100.224 84.6675 100.356 84.6565 100.346 84.4599C100.336 84.3074 100.255 84.2096 100.143 84.2201Z" fill="#574900"/>
<path d="M60.0576 81.3742C60.2093 81.4068 60.4015 81.3957 60.4321 81.178C60.4624 80.9599 60.2498 80.8947 60.1186 80.8836C59.7036 80.84 59.5622 80.5998 59.5519 80.1749C59.5519 80.0109 59.6631 79.7275 59.4203 79.706C59.1774 79.6839 58.9453 79.8584 58.9146 80.1639C58.8843 80.513 58.8341 80.8179 58.4293 80.8726C58.3279 80.8836 58.2065 80.9925 58.2474 81.1234C58.2776 81.2217 58.3888 81.3416 58.4698 81.3416C58.9453 81.3742 58.8643 81.7448 58.8946 82.0723C58.9453 82.6827 58.8136 83.3042 59.016 83.9151C59.2691 84.6895 59.6836 84.8636 60.4117 84.4387C60.1386 84.1659 59.6734 84.3078 59.6734 83.7621C59.6734 83.1733 59.6227 82.5734 59.5622 81.9846C59.5319 81.5813 59.5622 81.2759 60.0576 81.3742Z" fill="#574900"/>
<path d="M86.8826 81.3857C87.0747 81.3857 87.3683 81.5382 87.3883 81.146C87.4087 80.8186 87.1454 80.786 86.9333 80.7208C85.8507 80.4154 84.5764 81.7017 84.7178 82.9447C84.8393 83.9912 85.325 84.6125 86.2452 84.776C86.7007 84.8522 87.2264 84.8853 87.3781 84.1331C87.2468 84.1437 87.1659 84.1437 87.0747 84.1657C86.0228 84.3402 85.3654 83.9261 85.3147 83.043C85.2538 81.7779 85.6283 81.3857 86.8826 81.3857Z" fill="#574900"/>
<path d="M57.6412 84.2641C56.9434 84.3077 56.8624 83.8388 56.8926 83.2389C56.9131 82.8793 56.9131 82.5192 56.8824 82.1706C56.8424 81.6796 56.8219 81.2547 57.4793 81.3746C57.6412 81.4072 57.8031 81.3199 57.8231 81.1344C57.8538 80.9056 57.6412 80.8399 57.51 80.862C56.9434 80.9277 56.8322 80.6112 56.8624 80.0986C56.8722 79.9677 56.8722 79.7716 56.7107 79.7606C56.5995 79.7495 56.4074 79.8368 56.4074 79.9893C56.3972 80.5781 56.0836 80.9167 55.3857 81.1454C56.4577 81.3636 56.3162 82.1054 56.326 82.7704C56.3362 83.1301 56.3362 83.4902 56.3767 83.8388C56.4474 84.6132 56.9736 84.9512 57.6514 84.7005C57.7626 84.6568 57.8636 84.6022 57.8636 84.4823C57.8636 84.3298 57.7729 84.2536 57.6412 84.2641Z" fill="#574900"/>
<path d="M31.1605 80.7863C30.8976 81.0806 30.665 81.1353 30.3109 80.8956C30.0378 80.7101 29.9467 81.0154 29.9467 81.2767V82.7815V84.2859C29.9467 84.4714 29.9266 84.6895 30.1793 84.7111C30.4928 84.7437 30.4728 84.4819 30.4831 84.2748C30.5231 83.6536 30.5333 83.0433 30.6045 82.4215C30.6547 81.9311 30.7255 81.3966 31.3731 81.375C31.5247 81.375 31.7574 81.5059 31.7876 81.1895C31.8081 81.026 31.8178 80.852 31.6559 80.7427C31.4843 80.6449 31.2921 80.6449 31.1605 80.7863Z" fill="#574900"/>
<path d="M13.4274 81.3097C13.4176 81.1241 13.3567 80.8518 13.0836 80.8624C12.8105 80.8734 12.7798 81.1026 12.7798 81.3202C12.77 82.2905 12.77 83.2718 12.7798 84.2421C12.7798 84.4277 12.75 84.7 13.0631 84.7C13.3767 84.7 13.4274 84.4492 13.4376 84.2206C13.4576 83.7407 13.4474 83.2718 13.4474 82.7924H13.4376C13.4376 82.3015 13.4576 81.8001 13.4274 81.3097Z" fill="#574900"/>
<path d="M33.2436 81.2771C33.2338 81.0915 33.1729 80.8844 32.9705 80.8518C32.7584 80.8192 32.7277 81.0263 32.6974 81.1788C32.5458 82.2363 32.5662 83.3049 32.6774 84.3624C32.6974 84.5369 32.7482 84.7656 33.0012 84.7004C33.2134 84.6458 33.2436 84.4607 33.2436 84.2531V82.825C33.2539 82.313 33.2641 81.7895 33.2436 81.2771Z" fill="#574900"/>
<path d="M88.7322 80.8625C88.5703 80.852 88.5298 81.026 88.5298 81.1679V82.8141V84.3841C88.5298 84.515 88.4996 84.7001 88.7122 84.678C88.8336 84.6675 88.8941 84.5582 88.9141 84.4383C89.076 83.3482 89.056 82.258 89.0457 81.1568C89.0355 80.9387 88.8736 80.8625 88.7322 80.8625Z" fill="#574900"/>
<path d="M61.6348 80.7426C61.3412 82.0509 61.3919 83.2609 61.5436 84.4709C61.5641 84.5912 61.6245 84.7221 61.7562 84.689C61.9381 84.6454 61.9586 84.4603 61.9586 84.2969C61.9586 83.468 61.9684 82.6396 61.9586 81.8112C61.9381 81.4728 62.0293 81.1242 61.6348 80.7426Z" fill="#574900"/>
<path d="M42.5901 85.3001C42.5394 85.4199 42.5091 85.5944 42.651 85.6817C42.8227 85.7795 42.9339 85.638 43.0251 85.5072C43.3186 85.0604 43.2982 84.5479 43.3489 83.9372C42.6813 84.1989 42.7724 84.8312 42.5901 85.3001Z" fill="#574900"/>
<path d="M13.1235 78.9752C12.729 78.9205 12.7188 79.1497 12.7188 79.3673C12.7188 79.5855 12.729 79.8036 13.0021 79.8036C13.2547 79.8036 13.4268 79.6291 13.4473 79.3894C13.4571 79.1276 13.2449 79.0078 13.1235 78.9752Z" fill="#574900"/>
<path d="M32.9198 79.7928C33.1324 79.8475 33.2636 79.6946 33.2436 79.4659C33.2333 79.2041 33.0714 79.0407 32.8998 78.986C32.576 78.9314 32.5657 79.1605 32.5253 79.335C32.475 79.662 32.7174 79.7382 32.9198 79.7928Z" fill="#574900"/>
<path d="M88.7129 78.9647C88.4296 78.9757 88.531 79.2375 88.5106 79.4009C88.4701 79.6296 88.5408 79.8151 88.8143 79.8041C89.0265 79.8041 89.1275 79.6953 89.1577 79.4772C89.0567 79.2701 89.0367 78.9541 88.7129 78.9647Z" fill="#574900"/>
<path d="M61.7862 78.9644C61.5433 78.9208 61.4926 79.1279 61.4526 79.3024C61.3814 79.5531 61.5433 79.684 61.7457 79.7822C61.9579 79.7276 62.0793 79.5857 62.0895 79.357C62.0998 79.1389 61.9886 79.008 61.7862 78.9644Z" fill="#574900"/>
<path d="M109.348 84.1123C109.156 84.1123 108.994 84.1884 108.984 84.4172C108.974 84.6566 109.116 84.8309 109.328 84.8419C109.52 84.8524 109.611 84.6566 109.651 84.4824C109.651 84.243 109.561 84.1018 109.348 84.1123Z" fill="#574900"/>
<path d="M118.703 43.6878C118.784 43.873 118.652 43.9271 118.541 43.9927C118.703 44.0033 118.925 44.0904 118.986 43.9492C119.057 43.8075 118.844 43.7203 118.703 43.6878Z" fill="#574900"/>
<path d="M118.703 43.688C118.652 43.7861 118.602 43.8948 118.541 43.9929C118.652 43.9273 118.784 43.8622 118.703 43.688Z" fill="#574900"/>
<path d="M14.642 67.4055C14.622 67.4816 14.5913 67.5578 14.5713 67.6344C14.5815 67.6559 14.6015 67.6779 14.6118 67.6995C14.622 67.6018 14.622 67.5037 14.642 67.4055Z" fill="#574900"/>
<path d="M15.3496 65.5079C15.0663 65.2572 15.2891 64.9087 15.1877 64.6249C15.1472 65.2246 15.0867 65.8133 14.9551 66.391C15.0867 66.0861 15.2184 65.8023 15.3496 65.5079Z" fill="#574900"/>
<path d="M14.5702 67.6342C14.6005 67.5579 14.6209 67.4817 14.6409 67.405C14.7014 67.0455 14.8229 66.7185 14.9647 66.3916C15.0964 65.8134 15.1467 65.2247 15.1974 64.6255C14.975 65.5301 14.7521 66.4457 14.54 67.3508C14.5297 67.4491 14.54 67.5359 14.5702 67.6342Z" fill="#574900"/>
<path d="M14.662 67.3286C14.6522 67.3502 14.6522 67.3722 14.642 67.3943C14.6216 67.4921 14.6216 67.5904 14.6113 67.6881C14.6318 67.7212 14.6318 67.7538 14.6723 67.7759C14.9049 67.0232 15.2385 66.2931 15.3497 65.4973C15.2184 65.7912 15.0868 66.086 14.9654 66.3799C14.8844 66.7073 14.8035 67.0232 14.662 67.3286Z" fill="#574900"/>
<path d="M14.9556 66.3804C14.8142 66.7078 14.7026 67.0453 14.6318 67.3943C14.6421 67.3727 14.6421 67.3507 14.6523 67.3291C14.804 67.0237 14.8849 66.7073 14.9556 66.3804Z" fill="#574900"/>
<path d="M18.3529 68.2887C17.2503 68.2671 16.1579 68.2777 15.0553 68.2777C14.8227 68.2777 14.6003 68.2777 14.5803 67.9512C14.5803 67.8861 14.6003 67.8205 14.6003 67.7554C14.5701 67.7444 14.5296 67.7334 14.5091 67.7223C14.4789 67.7879 14.4486 67.8641 14.3877 67.9186C14.5394 68.2231 14.7315 68.3758 15.0958 68.3648C16.1882 68.3322 17.2805 68.3433 18.3729 68.3538C18.9089 68.3648 19.0405 68.1364 18.7879 67.6352C18.9191 68.0709 18.8484 68.2992 18.3529 68.2887Z" fill="#574900"/>
<path d="M14.5291 67.3514C14.3775 67.5146 14.3975 67.7214 14.3877 67.9287C14.4482 67.8741 14.4784 67.8086 14.5091 67.7324C14.3975 67.6453 14.4887 67.4821 14.5291 67.3514Z" fill="#574900"/>
<path d="M18.4658 68.2232C17.3027 68.2016 16.1396 68.2016 14.9863 68.2232C14.6323 68.2342 14.6625 68.0274 14.6727 67.7875C14.6425 67.7875 14.6323 67.777 14.6118 67.766C14.6118 67.8316 14.5918 67.8857 14.5918 67.9623C14.6118 68.2993 14.8346 68.2888 15.0673 68.2888C16.1699 68.2888 17.2622 68.2667 18.3644 68.2993C18.8501 68.3103 18.931 68.082 18.8096 67.6463C18.7287 67.8641 18.9413 68.2342 18.4658 68.2232Z" fill="#574900"/>
<path d="M14.6017 67.7653C14.6017 67.7437 14.6017 67.7217 14.6116 67.7002C14.6017 67.6782 14.5712 67.6562 14.5712 67.6346C14.5609 67.6672 14.5304 67.7002 14.5098 67.7327C14.5304 67.7437 14.5712 67.7547 14.6017 67.7653Z" fill="#574900"/>
<path d="M14.5094 67.7321C14.5294 67.6995 14.5499 67.6669 14.5699 67.6339C14.5397 67.5473 14.5397 67.4491 14.5294 67.351C14.489 67.4817 14.3982 67.6449 14.5094 67.7321Z" fill="#574900"/>
<path d="M14.6641 67.787C14.6227 67.7655 14.6227 67.7325 14.6023 67.7C14.6023 67.722 14.5918 67.7435 14.5918 67.7655C14.6227 67.7655 14.6332 67.7765 14.6641 67.787Z" fill="#574900"/>
<path d="M15.9061 55.0288C15.7238 54.8981 15.5926 55.1269 15.4307 55.1595C15.5725 55.2356 15.8452 54.9307 15.8657 55.3337C15.9061 55.2356 16.0276 55.1159 15.9061 55.0288Z" fill="#574900"/>
<path d="M16.2602 54.6697C15.9466 54.8986 15.6228 54.8766 15.4307 55.1595C15.5926 55.1269 15.7238 54.8986 15.9061 55.0288C16.0173 55.1164 15.9061 55.2361 15.8657 55.3337C16.0378 55.1925 16.2197 55.0508 16.2602 54.6697Z" fill="#574900"/>
<path d="M8.04709 55.9115C7.92611 55.879 7.78422 55.868 7.73352 55.7153C7.7135 55.7809 7.63256 55.879 7.65257 55.89C7.77399 55.9987 7.91588 55.9767 8.04709 55.9115Z" fill="#574900"/>
<path d="M7.25879 56.2279C7.5519 56.0101 7.83522 56.1518 8.04738 55.923C7.90594 55.9885 7.77473 55.9991 7.65331 55.9014C7.63285 55.8794 7.7138 55.7923 7.73426 55.7272C7.51142 55.7492 7.39 55.9014 7.25879 56.2279Z" fill="#574900"/>
</svg>
