<svg width="111" height="112" viewBox="0 0 111 112" fill="none" xmlns="http://www.w3.org/2000/svg">
<path d="M55.3485 0.125774C55.7625 0.125774 56.1789 0.147562 56.5917 0.122143C59.1642 -0.0376287 61.6399 0.716447 64.1724 0.923424C64.3189 0.935528 64.463 1.01057 64.6034 1.06746C65.0162 1.23207 65.3104 1.2817 65.0089 1.95226C64.4847 3.11908 64.2329 4.40694 63.8516 5.63912C63.6059 6.43435 63.3577 7.23079 63.0599 8.00786C62.8674 8.51017 62.9788 8.75104 63.4993 8.89145C65.7704 9.5027 67.9591 10.3512 70.08 11.3498C71.5703 12.0506 72.9975 12.8942 74.4054 13.7524C74.8376 14.0163 75.0386 13.94 75.3037 13.6265C76.6148 12.0784 78.151 10.7337 79.3773 9.10448C80.0189 8.25115 80.1206 8.24994 80.9632 8.91686C83.2923 10.7615 85.3188 12.9087 87.2279 15.1746C87.8211 15.879 88.4046 16.5944 89.0244 17.2758C89.3174 17.599 89.3125 17.7576 88.9457 18.0372C87.2388 19.3335 85.5585 20.6637 83.8734 21.9891C83.4388 22.3304 83.3444 22.6161 83.6991 23.2056C84.7414 24.9449 85.7135 26.7351 86.5246 28.5979C87.0693 29.8518 87.6395 31.0985 87.9615 32.4409C88.0826 32.9432 88.562 32.7955 88.8816 32.7495C91.0049 32.4481 93.1295 32.1709 95.271 32.0487C95.8291 32.0172 95.9598 32.4844 96.001 32.8536C96.2552 35.1352 96.8206 37.3684 96.852 39.6948C96.8702 41.0528 96.8617 42.4242 96.9586 43.7847C97.0034 44.4189 96.7504 44.569 96.1523 44.5751C94.1161 44.5993 92.1029 44.2543 90.0704 44.2361C89.4493 44.2301 89.2532 44.4189 89.1636 45.0435C88.7363 48.0065 88.033 50.9115 87.1359 53.7668C86.9773 54.2715 86.6456 54.7109 86.4858 55.2289C86.3527 55.6611 86.303 55.8813 86.8236 56.1682C88.7145 57.2116 90.6442 58.1799 92.5581 59.1772C93.0532 59.4351 93.1356 59.7679 92.8547 60.2218C91.4141 62.5555 90.0413 64.9339 88.3852 67.1259C87.5838 68.1862 86.6916 69.1787 85.8454 70.2051C85.6106 70.4896 85.4363 70.5513 85.1046 70.2572C83.7063 69.0178 82.2597 67.8328 80.8591 66.597C80.4826 66.2653 79.9063 66.2665 79.6339 65.7521C79.5395 65.573 79.2587 65.7448 79.111 65.9046C77.4452 67.7057 75.4453 69.0964 73.437 70.4678C72.5811 71.0512 71.6671 71.5559 70.7507 72.0425C70.3137 72.2749 70.1999 72.4516 70.4965 72.8983C71.6623 74.6509 72.7784 76.4375 73.9527 78.1841C74.2662 78.6501 74.2021 78.834 73.7227 79.0931C72.2179 79.9065 70.6054 80.4511 69.0184 81.06C66.711 81.9448 64.2729 82.3418 61.8844 82.9191C61.5007 83.0123 61.2501 82.8913 61.215 82.4192C61.1363 81.3226 61.0757 80.2187 60.8905 79.1391C60.7271 78.1865 60.7743 77.2387 60.7549 76.2886C60.7428 75.6434 60.5213 75.2392 59.7925 75.3312C58.1231 75.5418 56.4283 75.3336 54.7747 75.526C53.0375 75.7282 51.3681 75.2815 49.6624 75.313C49.4965 75.3166 49.3283 75.2017 49.1624 75.1387C48.4106 74.8543 48.2218 75.0068 48.1479 75.7972C48.0378 76.9882 47.6831 78.1344 47.4131 79.2952C47.2291 80.0844 47.0354 80.876 46.9253 81.676C46.8442 82.2703 46.5318 82.412 46.0318 82.3091C44.1421 81.9242 42.348 81.2621 40.5419 80.5831C38.1522 79.685 35.9901 78.3487 33.6742 77.3211C33.2021 77.1116 33.0835 76.7485 33.4636 76.262C34.8122 74.5347 36.1208 72.7772 37.4634 71.0464C37.6934 70.7498 37.5009 70.6155 37.3314 70.4799C36.6535 69.9413 35.955 69.4293 35.2746 68.8919C33.9176 67.8207 32.5411 66.7822 31.2833 65.579C30.5219 64.8492 29.8052 64.1048 29.1709 63.2708C28.9832 63.0239 28.8452 63.0505 28.6067 63.2357C27.3586 64.2028 26.0875 65.1409 24.8322 66.0995C24.285 66.5183 23.7426 66.9468 23.2257 67.4031C22.9037 67.6875 22.7596 67.4261 22.6035 67.2494C21.842 66.3876 21.1798 65.4483 20.5988 64.4606C19.6097 62.7806 18.6655 61.0727 17.7188 59.3685C17.2914 58.5999 17.1571 57.6969 16.5845 56.9804C16.4356 56.794 16.6704 56.5035 16.9622 56.3631C17.8556 55.9358 18.7115 55.4202 19.6242 55.0413C20.8433 54.5354 21.9728 53.8564 23.1761 53.3274C23.6555 53.1156 23.5163 52.6762 23.3964 52.4015C22.3977 50.1199 22.3892 47.6374 21.9461 45.248C21.7948 44.4298 21.7609 43.5402 21.8832 42.676C21.9486 42.21 21.7076 41.9074 21.2295 41.9291C19.7683 41.9945 18.3083 42.1046 16.8472 42.1749C16.0215 42.2136 15.1947 42.2293 14.3679 42.2124C13.9139 42.2027 13.9018 41.8033 13.9938 41.5188C14.2771 40.6449 14.1306 39.7383 14.2432 38.8499C14.3969 37.6359 14.5531 36.4255 14.7359 35.2139C15.0591 33.0739 15.5991 30.9908 16.139 28.9017C16.2528 28.4611 16.4743 28.0617 16.5094 27.5836C16.5445 27.1139 16.9755 27.0401 17.329 27.2265C19.1267 28.1706 21.0745 28.7697 22.8904 29.6715C23.3335 29.8918 23.5986 29.9039 23.8734 29.3386C25.136 26.7411 26.4204 24.1472 28.1491 21.816C28.7581 20.9942 29.4481 20.228 30.1442 19.4763C30.5243 19.066 30.5497 18.7707 30.1406 18.3725C28.6092 16.8813 27.0657 15.4022 25.4471 14.0066C25.0755 13.6858 25.1009 13.3578 25.3878 13.0891C27.3707 11.2323 29.35 9.36834 31.569 7.78999C32.4382 7.17148 33.3425 6.59654 34.2553 6.04218C34.7238 5.75774 35.0858 5.4854 35.5337 6.31694C36.4852 8.08169 37.5324 9.80166 38.4936 11.5664C38.8059 12.1401 39.1557 12.2358 39.7368 11.9114C42.0272 10.6284 44.5005 9.75325 47.0112 9.08027C48.2133 8.7583 49.4396 8.27051 50.7471 8.35887C51.1332 8.3855 51.3245 8.21605 51.2228 7.78636C50.7858 5.93082 50.2822 4.0886 50.1611 2.17013C50.1406 1.84937 49.9299 1.56372 49.8367 1.24297C49.6672 0.661979 49.9372 0.591776 50.3875 0.422321C52.0242 -0.187717 53.7045 0.321858 55.3485 0.125774ZM56.4901 29.9499C56.5276 29.663 56.5603 29.5613 56.5506 29.4645C56.4295 28.3522 56.2189 27.2507 56.0421 26.1504C55.8545 24.9848 55.7782 23.6558 54.4841 22.9732C54.2117 22.8291 54.075 22.5386 54.0084 22.2179C53.9309 21.8475 53.8631 21.4541 53.6851 21.1309C52.9443 19.785 53.0399 18.3737 53.3607 16.9672C53.4527 16.5641 53.7384 16.1211 54.2154 15.9868C54.7214 15.8452 54.7444 16.3402 54.9308 16.6089C55.1173 16.8788 55.311 16.9345 55.5143 16.6319C55.8376 16.1514 56.2479 15.7326 56.4332 15.1564C56.507 14.9265 56.6983 14.6977 57.0179 14.7437C57.151 14.7631 57.2951 14.8756 57.2527 14.9846C57.1583 15.2279 57.0966 15.5208 57.3641 15.5716C57.6752 15.6309 57.7454 15.2412 57.904 15.0294C58.1994 14.6372 58.3314 14.1554 57.6934 14.1325C55.8581 14.0659 53.9975 13.9424 52.1864 14.1651C50.1636 14.4133 48.1746 14.9543 46.2328 15.6551C43.7741 16.5423 41.5006 17.7721 39.3858 19.2645C37.1873 20.815 35.3243 22.7662 33.6294 24.8493C32.2845 26.5027 31.2107 28.3509 30.3052 30.2791C29.5304 31.9277 29.0147 33.6718 28.5196 35.4305C28.1431 36.7668 27.9458 38.12 27.8332 39.4708C27.6952 41.1291 27.8223 42.8067 27.7896 44.4758C27.7763 45.1585 28.0983 45.2989 28.654 45.1524C30.7592 44.5968 32.8716 44.0776 34.9901 43.5729C37.8229 42.8987 40.6145 42.0465 43.4594 41.4038C44.1736 41.2428 44.8757 41.0238 45.5815 40.8228C45.9386 40.7212 46.0645 40.4621 45.9822 40.116C45.843 39.5253 45.6759 38.9407 45.5391 38.35C45.2171 36.9689 44.8963 35.5867 44.5937 34.202C44.2535 32.6442 43.9448 31.078 43.5986 29.5214C43.3008 28.1839 43.1095 26.8549 43.6325 25.5259C43.762 25.1967 43.6058 24.8929 43.4073 24.675C42.6628 23.8628 42.2524 22.8255 41.5466 21.9855C41.0842 21.4335 41.0963 20.7303 41.1919 20.0682C41.2888 19.3952 42.2452 18.9196 42.8783 19.1665C43.3431 19.348 43.7463 19.6276 44.038 20.0283C44.6639 20.8864 45.3079 21.7361 45.8612 22.6415C46.234 23.2516 46.6989 23.4936 47.3804 23.4367C48.0572 23.3799 48.7266 23.4113 49.281 23.8701C50.6006 24.9643 51.9104 26.0681 53.2215 27.1732C54.2699 28.0604 55.3158 28.9525 56.4901 29.9499ZM31.9371 45.4344C30.948 45.5531 30.0861 45.6862 29.206 45.6584C28.062 45.6221 28.022 45.6874 28.1152 46.8228C28.1298 46.9958 28.1939 47.1665 28.2496 47.3335C28.5946 48.3672 28.8743 49.4287 29.1455 50.4745C29.8149 53.0478 31.0558 55.3451 32.4903 57.5021C34.1609 60.0136 36.3266 62.1112 38.7199 63.9934C41.8796 66.4783 45.4859 67.9223 49.3004 68.9439C50.0812 69.1533 50.9141 69.1654 51.7216 69.2792C52.178 69.3433 52.322 69.0686 52.1852 68.7382C51.7906 67.7868 51.8741 66.7398 51.4928 65.7787C50.9698 64.463 51.0207 64.4461 49.5934 64.4473C47.2618 64.4497 44.9314 64.4485 42.5999 64.4413C42.1108 64.44 41.6205 64.3807 41.1338 64.4001C40.9026 64.4086 40.6726 64.5127 40.4922 64.2984C40.2804 64.0455 40.537 63.8578 40.6375 63.6896C41.3142 62.5542 42.0515 61.454 42.7052 60.3053C44.1651 57.7429 45.6747 55.212 47.2037 52.6908C47.579 52.071 48.2121 51.4719 48.1383 50.7202C47.947 48.7763 47.3732 46.8978 46.9592 44.9914C46.9119 44.7748 46.8139 44.5545 46.4882 44.5993C44.8152 44.8341 43.1192 44.8873 41.4425 44.9709C38.2357 45.1306 35.0337 45.4574 31.9371 45.4344ZM83.1325 41.2671C83.0877 40.5166 83.0998 39.65 83.0042 38.7736C82.7573 36.5126 82.2004 34.3412 81.4196 32.2194C80.3446 29.2975 78.8241 26.6455 76.8762 24.1957C74.8037 21.5897 72.3063 19.5429 69.4844 17.8423C68.7448 17.3969 68.6721 17.4465 68.6721 18.3325C68.6697 25.4073 68.6746 32.482 68.6625 39.558C68.6612 39.9804 68.769 40.2891 69.0886 40.565C70.9311 42.1531 72.8777 43.6188 74.6403 45.3013C75.0858 45.7261 75.6681 45.7794 76.2237 45.6087C78.0868 45.0374 79.9572 44.5 81.8638 44.0957C83.1071 43.8319 83.1349 43.8016 83.1337 42.5525C83.1325 42.164 83.1325 41.7754 83.1325 41.2671ZM54.8521 63.0626C58.2962 63.0626 61.7416 63.0626 65.1857 63.0626C65.7038 63.0626 66.2219 63.0662 66.7401 63.0602C67.119 63.0566 67.441 62.8992 67.3804 62.484C67.1686 61.017 67.2896 59.5464 67.2981 58.0806C67.3102 56.0447 67.1492 54.0052 67.3901 51.9718C67.4301 51.6353 67.2763 51.49 66.9228 51.6474C65.5525 52.2574 64.1821 52.8675 62.8045 53.4618C62.4849 53.5998 62.4389 53.8261 62.4425 54.1299C62.4558 55.0873 62.4558 56.046 62.4473 57.0046C62.4389 57.9426 62.2936 58.0855 61.3808 58.0855C59.0759 58.0867 56.7697 58.1339 54.466 58.0697C52.7712 58.0225 51.1466 58.1315 49.6866 59.0986C49.5425 59.1942 49.3961 59.193 49.2593 59.0901C49.0644 58.9436 49.2411 58.848 49.3016 58.7197C50.1164 57.0034 50.9359 55.2895 51.7264 53.5622C52.9334 50.9248 54.0871 48.2619 55.3267 45.639C56.1015 44.0013 55.9005 44.2495 54.4744 44.241C53.8982 44.2374 53.5266 44.3197 53.2118 44.9406C52.4891 46.3616 51.6114 47.7039 50.7894 49.0753C49.7326 50.8376 48.66 52.5903 47.6104 54.3563C46.0427 56.9961 44.492 59.6469 42.9219 62.2867C42.8057 62.4828 42.5684 62.6704 42.6543 62.8823C42.7742 63.18 43.1071 63.0578 43.3504 63.059C47.1867 63.065 51.0194 63.0626 54.8521 63.0626ZM39.6836 43.6273C39.6957 43.6818 39.7078 43.7363 39.7199 43.7907C39.9003 43.7907 40.0806 43.798 40.2598 43.7895C42.3129 43.6878 44.3673 43.5946 46.4192 43.4772C47.9555 43.3901 49.499 43.3465 51.0207 43.1468C53.0714 42.8781 55.1378 43.1819 57.1825 42.872C57.7733 42.7825 57.8919 43.0911 57.6413 43.6261C56.2843 46.5141 54.9405 49.4094 53.5992 52.3046C53.0133 53.5683 52.4467 54.8416 51.8669 56.1089C51.7833 56.2917 51.6078 56.4878 51.8342 56.65C51.9746 56.7516 52.1768 56.7044 52.3499 56.6209C53.7675 55.9346 55.2359 55.3669 56.6813 54.746C58.2369 54.0766 59.7756 53.3504 61.3384 52.7101C63.4812 51.8314 65.5803 50.8534 67.7388 50.017C69.1806 49.4578 70.5425 48.7037 72.0436 48.2958C72.2349 48.2438 72.4274 48.1542 72.3668 47.9496C72.3015 47.7257 72.0472 47.8056 71.8983 47.8468C70.8306 48.1421 69.7786 48.4967 68.7036 48.7606C66.8345 49.2193 64.9992 49.8088 63.1301 50.2458C62.0406 50.4999 60.9837 50.8752 59.8845 51.0664C59.646 51.1076 59.2998 51.3194 59.1049 51.0373C58.9015 50.7432 59.1775 50.4455 59.2865 50.1828C59.7489 49.0656 60.2889 47.9811 60.7404 46.8603C61.9123 43.9481 63.0841 41.0371 64.4073 38.1902C64.5017 37.9881 64.5223 37.7872 64.4206 37.5971C64.2947 37.3623 64.1022 37.5294 63.9497 37.5657C61.6822 38.1079 59.4124 38.6441 57.151 39.2082C55.4066 39.6439 53.673 40.1269 51.9298 40.5674C50.3113 40.9766 48.6903 41.3796 47.0608 41.7452C45.0355 42.2003 43.0587 42.8527 41.0019 43.1843C40.5503 43.2582 40.1218 43.476 39.6836 43.6273ZM67.7327 65.1336C67.7945 65.5197 67.7703 66.131 68.1395 66.3851C68.5353 66.6575 68.8561 66.0729 69.2217 65.8889C69.3125 65.8429 69.4058 65.8017 69.4953 65.7521C72.1175 64.2803 74.3437 62.3122 76.3436 60.102C78.2999 57.939 79.7562 55.4335 80.9644 52.7827C81.169 52.3325 81.2053 52.0032 80.721 51.6934C79.3059 50.7916 77.904 49.8681 76.5143 48.9276C75.6281 48.3273 74.8534 48.1651 73.7735 48.711C72.4298 49.39 71.0461 50.0521 69.5777 50.4866C68.8683 50.696 68.5947 51.0967 68.6189 51.9851C68.723 55.7361 68.6685 59.4907 68.6576 63.2442C68.6564 63.7065 68.5862 64.2415 68.0838 64.4013C67.6734 64.532 67.7412 64.7717 67.7327 65.1336ZM67.5862 21.0269C66.7994 21.4456 66.6989 22.1816 66.3369 22.7275C65.2982 24.2961 64.4109 25.958 63.4485 27.5715C62.4497 29.2466 61.4861 30.9484 60.4898 32.6273C59.6085 34.1136 58.7914 35.6387 57.8096 37.0658C57.7018 37.2219 57.5312 37.4422 57.6716 37.6322C57.8278 37.8428 58.0396 37.6201 58.2248 37.6117C59.1836 37.5717 60.0371 37.1287 60.9559 36.9338C62.7125 36.561 64.446 36.0817 66.1844 35.6327C66.3406 35.5927 66.4931 35.5116 66.5984 35.6569C66.6977 35.7937 66.596 35.9377 66.5318 36.0829C66.2449 36.7281 65.9798 37.3817 65.705 38.0317C64.8443 40.0712 63.9206 42.0877 63.1567 44.1635C62.9086 44.8365 62.3771 45.4199 62.4376 46.2224C62.4897 46.9172 62.4824 47.6216 62.4364 48.3176C62.3953 48.947 62.6846 49.0099 63.1797 48.8768C64.2777 48.5827 65.3636 48.1845 66.481 48.0404C67.3465 47.9291 67.4482 47.5417 67.4458 46.8228C67.4265 41.543 67.4337 36.2621 67.4361 30.9823C67.4361 30.1883 67.5257 29.3943 67.5536 28.6051C67.6105 27.0546 67.4991 25.4956 67.4289 23.9415C67.3889 23.0046 67.5318 22.0751 67.5862 21.0269ZM55.3787 69.5854C56.915 69.5697 58.4282 69.3373 59.9499 69.1485C62.3444 68.8507 64.578 68.0918 66.7655 67.1235C67.3114 66.8826 67.5318 66.695 67.1904 66.0777C67.0221 65.7715 66.8781 65.3769 66.8284 65.0077C66.7425 64.3638 66.3285 64.3517 65.8491 64.3868C65.5682 64.4074 65.2873 64.4437 65.0065 64.4449C61.8784 64.4485 58.7502 64.4558 55.6221 64.44C55.0652 64.4376 54.5095 64.5054 53.9394 64.3432C53.65 64.2609 53.0799 64.3432 53.2118 64.9109C53.4467 65.924 53.4261 66.9431 53.4442 67.9671C53.4733 69.5854 53.4842 69.5854 55.0676 69.5854C55.1717 69.5854 55.2758 69.5854 55.3787 69.5854ZM61.0104 23.7999C61.1786 24.9292 61.3457 26.0585 61.5176 27.1878C61.5539 27.4274 61.3808 27.8123 61.6459 27.8777C62.0043 27.9673 62.0975 27.546 62.2464 27.2931C63.0538 25.9229 63.8528 24.5467 64.6615 23.1765C65.7328 21.3597 66.8151 19.5502 67.878 17.7285C68.0681 17.4017 68.2702 17.0301 67.7097 16.8002C66.4701 16.2942 65.2401 15.7628 63.9981 15.2617C63.365 15.0064 62.9715 15.2 62.8141 15.873C62.566 16.9454 62.4849 18.042 62.451 19.1398C62.4146 20.2909 62.5853 21.4941 61.6617 22.4273C61.284 22.811 60.7961 23.1305 61.0104 23.7999ZM58.4173 33.7275C58.4149 33.3608 58.2321 33.2155 58.0699 33.1175C57.0179 32.4844 56.4477 31.366 55.4804 30.6253C53.9369 29.4451 52.4334 28.2045 51.0364 26.8464C50.9141 26.7278 50.7846 26.6564 50.6236 26.7109C50.4226 26.7786 50.4589 26.9796 50.4989 27.103C50.8778 28.282 50.3948 29.1861 49.5946 29.985C49.3343 30.2452 49.3936 30.3989 49.6781 30.5805C52.0956 32.1177 54.5059 33.667 56.9283 35.1969C57.0711 35.2877 57.306 35.5443 57.4658 35.3107C57.835 34.7769 58.1401 34.1971 58.4173 33.7275ZM49.614 39.1997C49.4215 37.539 49.2472 36.1459 49.1019 34.7503C48.9772 33.5556 48.8876 32.3561 48.7811 31.1591C48.7484 30.7863 48.5486 30.6882 48.1964 30.7766C47.2679 31.009 46.3708 30.9727 45.567 30.3808C45.4266 30.2767 45.2704 30.2186 45.1409 30.2985C44.9968 30.3868 45.0246 30.5829 45.061 30.7269C45.5016 32.4469 45.843 34.1887 46.2183 35.922C46.4519 37.0016 46.6795 38.0922 46.9023 39.1767C47.1153 40.2164 47.2921 40.3689 48.3029 40.0772C48.4494 40.0349 48.6031 40.0191 48.7557 40.0034C49.413 39.938 49.7544 39.6391 49.614 39.1997ZM51.2543 39.4321C52.3741 39.1283 53.506 38.747 54.6681 38.5328C55.5071 38.3778 56.0082 37.9615 56.4174 37.257C56.7455 36.6906 56.6777 36.4218 56.1003 36.0696C54.3062 34.9754 52.5581 33.805 50.7943 32.6612C50.6551 32.5704 50.5667 32.3525 50.3439 32.5159C50.1696 32.6442 50.1515 32.8197 50.2071 33.0001C50.4916 33.9163 50.2749 34.8725 50.4626 35.8094C50.6756 36.8782 50.7107 37.9845 50.7906 39.0775C50.8136 39.4091 50.9613 39.4672 51.2543 39.4321ZM82.9739 45.4804C82.9643 44.8994 82.8154 44.828 82.3033 45.035C81.7198 45.271 81.192 45.6112 80.5891 45.8206C79.5698 46.1764 78.5832 46.6279 77.582 47.0358C77.1934 47.1944 77.0784 47.3795 77.4827 47.6712C77.8326 47.9242 78.1849 48.1784 78.4996 48.4713C79.3422 49.2532 80.3773 49.8185 81.0806 50.7529C81.1896 50.8982 81.2477 51.1027 81.4583 51.064C81.6508 51.0289 81.6956 50.8437 81.744 50.6561C81.9849 49.7277 82.273 48.8114 82.497 47.8794C82.6931 47.0685 82.825 46.2418 82.9739 45.4804ZM59.3119 25.1228C58.9088 25.1797 58.5069 25.2657 58.1013 25.2874C57.266 25.3322 57.0518 25.6409 57.2007 26.4785C57.3338 27.2277 57.6074 27.9418 57.651 28.7153C57.6922 29.4221 57.8386 30.1242 57.9524 30.8262C58.0662 31.5258 58.6631 31.8671 59.186 32.085C59.6267 32.269 59.5262 31.5294 59.8252 31.32C59.9451 31.2353 60.0516 31.0925 60.1012 30.9545C60.2671 30.4897 60.79 30.1254 60.5842 29.5589C60.1448 28.3522 60.3288 27.0776 60.1424 25.843C60.0613 25.3032 59.8797 25.0345 59.3119 25.1228ZM58.3665 56.8521C59.1909 56.8521 59.887 56.846 60.583 56.8545C60.876 56.8581 61.0818 56.817 61.0709 56.4454C61.0527 55.8523 61.0673 55.2592 61.0661 54.6661C61.0648 54.3357 60.9498 54.1747 60.5964 54.3466C58.9887 55.1297 57.3157 55.7591 55.6608 56.4297C55.4913 56.4986 55.1717 56.5471 55.2226 56.7879C55.2807 57.0651 55.6063 57.0494 55.8146 56.9889C56.7007 56.7274 57.6026 56.9211 58.3665 56.8521ZM72.247 46.3386C72.2349 46.2285 72.1804 46.1716 72.0775 46.1147C71.0836 45.5676 70.1224 44.9696 69.2108 44.2918C69.0741 44.1902 68.8574 44.201 68.6988 44.316C68.5329 44.4359 68.5704 44.5726 68.6068 44.7748C68.7193 45.4066 68.7048 46.0542 68.6201 46.6932C68.5462 47.2524 68.7775 47.3384 69.2968 47.3093C70.195 47.2585 70.9529 46.6485 71.8765 46.732C72.1053 46.7513 72.2446 46.5855 72.247 46.3386ZM49.0813 44.5569C48.1007 44.5569 48.1262 44.5521 48.3029 45.4792C48.4542 46.272 48.8864 46.9971 48.8101 47.8492C48.7859 48.1251 48.9857 48.4193 49.0704 48.7086C49.1418 48.9518 49.4069 49.0027 49.4675 48.8635C49.7362 48.2462 50.4263 47.7729 50.2979 47.0431C50.2168 46.5819 50.1962 46.1328 50.189 45.6777C50.172 44.5569 50.1805 44.5569 49.0813 44.5569ZM59.9729 16.9442C59.6255 17.1015 59.5165 17.2662 59.4935 17.53C59.4645 17.8568 59.4124 18.1885 59.3107 18.4995C59.2441 18.7041 59.1836 19.0103 58.9354 19.037C58.6497 19.0684 58.5359 18.7864 58.3979 18.5649C58.203 18.2502 58.2757 17.9161 58.266 17.5881C58.2599 17.3436 58.2067 17.1972 57.9173 17.2105C57.6595 17.2226 57.6365 17.3787 57.6365 17.5724C57.6365 17.9597 57.6353 18.3483 57.6353 18.7356C57.6353 20.3539 57.6353 20.3539 59.2066 20.0077C59.7393 19.8903 60.0492 19.6506 59.9874 19.0152C59.9221 18.3519 59.9729 17.6777 59.9729 16.9442ZM42.5672 20.4773C42.3275 20.5863 42.158 20.6843 42.3941 21.0293C43.0405 21.971 43.6494 22.9381 44.2705 23.8979C44.4605 24.1908 44.7051 24.1957 44.9738 24.0335C45.3333 23.8156 45.0755 23.5917 44.9447 23.4101C44.3213 22.5411 43.6712 21.6901 43.055 20.8162C42.9291 20.6347 42.842 20.4689 42.5672 20.4773ZM47.3078 28.7189C47.9361 28.7177 48.4591 28.242 48.4724 27.6586C48.4893 26.959 47.976 26.3889 47.3223 26.3828C46.826 26.378 46.1432 27.0667 46.1299 27.5872C46.1142 28.2093 46.6456 28.7201 47.3078 28.7189ZM59.2187 21.085C58.8858 21.2326 58.4246 21.2193 57.9827 21.3113C57.6522 21.3815 57.5929 21.6514 57.6341 21.9613C57.6861 22.3583 57.9234 22.253 58.1812 22.2046C58.6013 22.1259 59.0286 22.0896 59.4524 22.0278C59.8385 21.971 59.8301 21.6817 59.8228 21.3888C59.8131 21.0147 59.5335 21.1213 59.2187 21.085ZM71.4456 44.402C71.4541 44.2374 71.4916 44.1224 71.4565 44.0921C70.6284 43.3816 69.7931 42.6784 68.9542 41.98C68.8295 41.8759 68.7157 41.9497 68.6177 42.049C68.4312 42.2378 68.5656 42.3697 68.6964 42.5041C69.476 43.3102 70.4311 43.8512 71.4456 44.402ZM56.6946 19.6761C56.5324 19.3008 56.5796 18.7828 56.524 18.2756C56.5082 18.128 56.4574 17.8847 56.2492 17.8677C56.0397 17.8508 56.0119 18.0699 55.9138 18.2187C55.524 18.8167 56.1995 19.2706 56.0906 19.8274C56.0421 20.0755 56.1511 20.3321 56.4513 20.2909C56.6801 20.2607 56.7346 20.0198 56.6946 19.6761ZM54.1912 19.2827C54.3146 19.5853 54.4527 19.9617 54.6221 20.3236C54.6936 20.4761 54.8703 20.5173 55.0253 20.4592C55.2117 20.3902 55.1911 20.1929 55.1463 20.0658C55.0228 19.7124 54.8751 19.3638 54.7045 19.0309C54.6427 18.9099 54.5229 18.7501 54.3437 18.8021C54.1391 18.8615 54.2493 19.06 54.1912 19.2827ZM59.6957 14.2632C59.3204 14.2378 59.0226 14.291 59.042 14.7304C59.0529 14.9797 59.1437 15.3767 59.3712 15.3065C59.7078 15.2012 60.0601 14.9168 60.1133 14.5016C60.1557 14.1639 59.8385 14.3007 59.6957 14.2632ZM55.5337 21.5618C55.2504 21.5667 54.9466 21.6454 55.041 21.9165C55.1415 22.2058 55.38 22.489 55.7782 22.5035C56.0881 22.5156 56.1269 22.3256 56.0833 22.1053C56.0216 21.7967 55.9296 21.4892 55.5337 21.5618ZM61.2077 15.1891C61.2319 15.3913 61.123 15.6866 61.5055 15.6672C61.8929 15.6467 62.1096 15.4348 62.1507 15.0523C62.1907 14.6844 61.9195 14.7449 61.6956 14.7231C61.3469 14.6904 61.1447 14.7921 61.2077 15.1891ZM51.8886 44.6271C51.8644 44.5266 51.9722 44.241 51.7058 44.287C51.4698 44.3281 51.2688 44.5351 51.2652 44.8317C51.2616 45.0338 51.2773 45.3098 51.5243 45.2626C51.764 45.2178 51.931 44.9757 51.8886 44.6271Z" fill="#3E3400"/>
<path d="M42.6583 100.791C42.2152 100.397 41.7322 100.268 41.3315 100.23C40.0168 100.109 38.8268 99.5717 37.5811 99.2328C35.5255 98.6724 33.5075 97.9582 31.6033 97.0129C29.4266 95.932 27.244 94.8632 25.1363 93.6299C23.272 92.5393 21.737 91.1195 20.1633 89.6985C19.1718 88.8028 18.1936 87.9289 17.5109 86.75C16.9443 85.7732 16.7179 84.8351 17.4104 83.8523C17.6574 83.5025 17.4177 83.3476 17.2191 83.1503C16.3088 82.2437 15.3899 81.3456 14.4917 80.4281C11.9967 77.8766 9.85032 75.0576 8.08408 71.9553C6.80813 69.7125 5.63629 67.4236 4.59398 65.0525C3.71752 63.0565 3.07591 60.9892 2.41009 58.9388C1.78785 57.0239 1.4162 55.0159 1.05908 53.0175C0.720118 51.1233 0.660799 49.2084 0.440473 47.3069C0.251623 45.6777 -0.0619182 44.0533 0.0107166 42.4145C0.0809303 40.8313 0.298835 39.2529 0.49616 37.677C0.60027 36.8406 0.755224 36.0103 0.764909 35.1654C0.781857 33.8037 1.22372 32.5098 1.38231 31.1711C1.55542 29.7053 2.17524 28.3388 2.32777 26.8682C2.38588 26.3078 2.82895 25.8781 2.8459 25.2753C2.85195 25.0707 3.19697 25.0998 3.43303 25.3491C4.55524 26.5305 5.7295 27.6634 6.85171 28.8447C7.23183 29.2442 7.57322 29.249 8.00418 28.9936C9.75226 27.9563 11.6214 27.1381 13.3295 26.0282C13.47 25.9374 13.6285 25.8648 13.7423 25.9931C13.8682 26.1335 13.8186 26.3223 13.7605 26.5038C13.2169 28.2129 12.677 29.922 12.2545 31.6674C11.7582 33.7178 11.3793 35.7767 11.1154 37.8791C10.8297 40.1559 10.6638 42.4217 10.7231 44.7021C10.7728 46.6375 10.9883 48.5596 11.2631 50.4866C11.5258 52.3312 11.9325 54.1287 12.4192 55.9079C13.039 58.1738 13.8416 60.3816 14.9045 62.4888C15.6357 63.9377 16.3499 65.3938 17.2203 66.7676C18.5411 68.8507 19.9877 70.8357 21.5421 72.753C22.8072 74.3144 24.4693 75.5054 25.5697 77.2145C26.2827 78.3208 26.7476 79.5179 27.0055 80.7936C27.1072 81.2947 27.0043 81.8055 26.7028 82.2631C26.3869 82.7424 26.5454 83.1055 27.0103 83.4202C29.6821 85.2261 32.5136 86.7657 35.4795 87.9906C38.0205 89.0413 40.6705 89.8183 43.3665 90.4659C45.5298 90.9851 47.7318 91.1655 49.8976 91.6097C51.5331 91.945 53.2363 91.8312 54.913 91.8155C56.1042 91.8034 57.2966 91.7901 58.4866 91.8143C60.058 91.8469 61.5918 91.5359 63.1365 91.3374C65.1545 91.0783 67.1399 90.6462 69.0998 90.1149C70.9822 89.6041 72.803 88.9275 74.6091 88.1758C76.9347 87.2087 79.1391 86.048 81.2347 84.6633C81.8496 84.2578 82.444 83.822 83.0445 83.3948C83.3895 83.1503 83.4621 82.8428 83.2091 82.4906C82.6559 81.7184 82.7769 80.9365 83.0808 80.0977C83.8858 77.8778 85.3833 76.1736 87.0648 74.5976C88.4316 73.317 89.6591 71.9105 90.8564 70.4726C92.2461 68.8023 93.4228 66.9855 94.522 65.119C95.574 63.3325 96.4541 61.4697 97.1623 59.5101C97.563 58.4001 98.0387 57.3193 98.4055 56.1875C98.8946 54.6842 99.0798 53.1265 99.4406 51.6026C100.177 48.4858 100.313 45.3109 100.207 42.1288C100.143 40.2116 100.03 38.2798 99.7214 36.3903C99.3328 34.0204 98.8014 31.665 98.1731 29.3471C97.8269 28.0689 97.5303 26.7447 96.8657 25.5646C96.7688 25.3927 96.7943 25.2184 96.8899 24.9775C98.2881 25.8635 99.6754 26.7387 101.059 27.6198C101.681 28.0168 102.293 28.432 102.915 28.8278C103.289 29.0662 103.607 29.0953 104.024 28.7782C105.073 27.9793 106.003 27.0606 106.933 26.1347C107.518 25.5525 107.726 25.5501 108.001 26.3223C108.762 28.4683 109.572 30.5986 109.882 32.8863C109.993 33.7045 110.194 34.5275 110.369 35.3361C111.165 39.035 111.044 42.7764 110.878 46.4887C110.775 48.7799 110.463 51.0918 109.933 53.371C109.537 55.0728 109.229 56.8073 108.748 58.4873C108.212 60.3513 107.524 62.1717 106.889 64.0079C106.36 65.5403 105.748 67.0424 105.02 68.4876C103.995 70.5259 102.904 72.5279 101.655 74.4463C99.6234 77.5655 97.1707 80.3143 94.4675 82.8525C94.0741 83.2217 93.8876 83.534 94.3247 83.9842C94.5946 84.2626 94.5365 84.6633 94.4373 84.9429C93.7182 86.9836 92.4737 88.6672 90.8213 90.0568C88.7887 91.7659 86.6375 93.3091 84.2999 94.5667C82.8968 95.322 81.4889 96.0676 79.9962 96.6704C78.7094 97.1908 77.4213 97.7004 76.1187 98.1797C73.6903 99.0742 71.2268 99.8452 68.6833 100.344C68.3432 100.41 67.9994 100.476 67.595 100.821C68.0127 100.821 68.2814 100.821 68.5514 100.821C77.1247 100.82 85.6981 100.818 94.2702 100.818C95.3258 100.818 95.3198 100.82 95.1164 101.863C95.0728 102.088 95.0898 102.327 95.0898 102.559C95.0873 105.361 95.0873 108.163 95.0861 110.965C95.0861 112 95.0873 112 94.0814 112C77.9721 112 61.8617 112 45.7525 112C36.402 112 27.0527 112 17.7022 112C16.6199 112 16.7083 111.989 16.5727 110.891C16.3947 109.446 16.5109 108.007 16.4795 106.567C16.4444 104.922 16.4625 103.277 16.4734 101.632C16.4783 100.964 16.8729 100.809 17.4939 100.811C23.1147 100.829 28.7342 100.82 34.3549 100.82C36.9189 100.82 39.4829 100.822 42.0469 100.821C42.2152 100.821 42.3823 100.805 42.6583 100.791ZM78.3825 110.765C83.1982 110.765 88.0151 110.765 92.8308 110.765C93.0378 110.765 93.2485 110.787 93.4518 110.756C93.7944 110.701 94.0777 110.481 93.9797 110.132C93.7436 109.289 93.8586 108.438 93.8731 107.597C93.9034 105.95 93.7109 104.299 93.9833 102.655C94.0511 102.242 93.7787 102.043 93.315 102.045C87.7427 102.059 82.1704 102.06 76.5981 102.055C74.9348 102.054 73.2739 102.089 71.6117 102.191C70.4048 102.265 69.1942 102.112 67.9873 102.082C66.0455 102.035 64.0953 102.14 62.1559 102.143C60.7165 102.145 59.259 102.135 57.8111 102.089C55.833 102.028 53.8489 102.032 51.8635 102.174C50.0174 102.305 48.1543 102.207 46.2985 102.077C45.3567 102.012 44.4015 102.163 43.4524 102.202C42.0724 102.259 40.6971 102.053 39.311 102.189C38.5762 102.26 37.816 101.885 37.0908 102.076C35.8972 102.392 34.7023 102.141 33.5172 102.164C28.8322 102.259 24.1449 102.203 19.4575 102.203C19.2251 102.203 18.9805 102.235 18.7626 102.175C18.0544 101.986 17.8414 102.305 17.8486 102.957C17.8632 104.407 17.8571 105.857 17.8523 107.307C17.8498 108.213 17.8801 109.122 17.8111 110.022C17.7627 110.649 17.9939 110.972 18.6077 110.917C19.2505 110.859 19.8945 110.785 20.5398 110.781C23.1619 110.765 25.784 110.775 28.4061 110.775C31.573 110.774 34.7387 110.762 37.9055 110.774C39.719 110.781 41.5385 110.874 43.3447 110.848C44.8991 110.825 46.4595 110.889 48.0199 110.805C49.5259 110.724 51.0537 110.797 52.5717 110.856C54.0075 110.912 55.4759 110.836 56.9286 110.79C59.3667 110.712 61.8085 110.768 64.2478 110.768C68.9582 110.764 73.6697 110.765 78.3825 110.765ZM55.2834 100.668C56.1889 100.58 57.3245 100.602 58.4527 100.559C61.1463 100.456 63.7914 100.081 66.4244 99.5717C68.2161 99.2255 70.0283 98.9205 71.7691 98.3915C73.5572 97.8493 75.3149 97.1848 77.0678 96.5118C79.9938 95.3898 82.8217 94.0995 85.4705 92.4255C87.8505 90.921 90.2293 89.3923 91.9374 87.0949C93.6346 84.8109 93.3732 83.8281 91.8478 82.4519C90.8673 81.5671 89.7402 80.8445 88.6979 80.0262C88.3347 79.7406 88.0648 79.7793 87.7621 80.0916C87.3517 80.5165 86.8966 80.8929 86.4535 81.2826C85.9789 81.7002 85.2611 82.0694 85.1981 82.6891C85.1339 83.3161 84.7829 83.5969 84.41 83.8874C83.5687 84.5434 82.691 85.1535 81.8097 85.7562C79.7711 87.1494 77.5593 88.2218 75.3282 89.2628C73.97 89.897 72.5608 90.4151 71.1372 90.8278C68.7814 91.5117 66.4026 92.1229 63.9585 92.486C62.4682 92.7075 60.9671 92.9738 59.4805 93.0029C56.5412 93.061 53.591 93.2316 50.6542 92.8867C48.7838 92.6676 46.9147 92.4667 45.0552 92.1386C43.2248 91.8155 41.4477 91.3253 39.6778 90.8036C38.0363 90.3194 36.4528 89.6537 34.8585 89.0195C31.5028 87.6844 28.4461 85.8567 25.5358 83.7421C25.0104 83.3597 24.8833 82.7157 24.2804 82.3792C23.5553 81.975 22.9306 81.3661 22.3241 80.7827C21.9295 80.4027 21.691 80.4087 21.3133 80.7936C20.2601 81.866 19.3945 83.0728 18.5375 84.3013C18.0169 85.047 18.161 85.6183 18.5919 86.2501C19.4926 87.5694 20.7129 88.5946 21.8823 89.6465C22.5917 90.2855 23.2502 90.996 24.0807 91.5177C26.1387 92.8128 28.233 94.0293 30.4278 95.0835C33.401 96.5106 36.4383 97.727 39.6488 98.5428C42.1874 99.188 44.7163 99.7738 47.3275 100.098C49.9012 100.418 52.4664 100.694 55.2834 100.668ZM1.5191 46.2708C1.41378 46.968 1.64137 47.883 1.73579 48.7969C1.89196 50.3111 2.26482 51.8011 2.45004 53.3129C2.74542 55.7155 3.36887 58.0564 4.11822 60.3259C4.81188 62.4247 5.64476 64.5005 6.57207 66.5328C7.71243 69.0298 9.02712 71.424 10.5682 73.6705C12.5572 76.5681 14.8198 79.271 17.4273 81.647C18.4963 82.6201 18.6052 82.982 19.7093 81.5017C19.8316 81.3371 19.9986 81.2052 20.1415 81.0563C21.2637 79.8822 22.3786 78.6996 23.5141 77.5377C23.8156 77.229 23.8289 77.0039 23.5166 76.6989C22.8544 76.0513 22.2334 75.365 21.6087 74.6811C20.0035 72.9224 18.5713 71.0342 17.2385 69.071C15.0728 65.8804 13.2799 62.4888 12.0378 58.8298C11.7691 58.037 11.4132 57.2721 11.2025 56.4684C10.8575 55.1514 10.6215 53.8055 10.3188 52.4765C9.96654 50.9344 9.65057 49.3803 9.64331 47.7971C9.63605 46.341 9.51378 44.8909 9.60215 43.4288C9.72805 41.3215 9.49562 39.2093 9.90964 37.0996C10.4483 34.3508 10.6723 31.5355 11.7703 28.9137C11.8224 28.7903 11.7933 28.5966 11.7304 28.4744C11.6686 28.3545 11.4943 28.3824 11.3841 28.4502C10.222 29.1679 8.99565 29.7755 7.82744 30.4751C7.28752 30.7983 7.02846 30.7269 6.6556 30.3408C5.84693 29.5032 5.01405 28.6886 4.19085 27.8643C3.80589 27.4794 3.52988 27.5012 3.39066 28.0737C3.35555 28.2202 3.26597 28.3582 3.2466 28.5058C3.01417 30.29 2.51057 32.0196 2.24061 33.8061C1.79632 36.7462 1.54331 39.6875 1.37262 42.6457C1.30725 43.7858 1.60263 44.9006 1.5191 46.2708ZM109.66 42.7304C109.984 40.1426 109.438 37.4797 109.036 34.8265C108.703 32.6321 108.031 30.4885 107.49 28.3267C107.341 27.7312 107.001 27.644 106.565 28.0483C105.734 28.8193 104.886 29.5734 104.093 30.3819C103.743 30.739 103.508 30.7196 103.123 30.4582C101.989 29.6872 100.828 28.9537 99.6718 28.2141C99.5169 28.1149 99.4152 27.8365 99.1549 28.0059C98.8958 28.1754 99.098 28.4078 99.1501 28.5555C99.6403 29.9644 99.9745 31.4047 100.3 32.8633C101.016 36.0708 101.281 39.3134 101.46 42.5767C101.545 44.1272 101.215 45.6656 101.321 47.2088C101.404 48.435 101.088 49.6151 100.917 50.7892C100.602 52.9618 100.052 55.103 99.3534 57.2055C98.529 59.6868 97.6162 62.1185 96.3391 64.4061C94.4833 67.7323 92.3514 70.8478 89.7438 73.6487C88.7947 74.6678 87.7924 75.6168 86.7767 76.5585C86.3022 76.9991 86.2392 77.3186 86.8554 77.6817C87.2476 77.9129 87.5817 78.2421 87.9437 78.5241C89.4327 79.6873 90.9387 80.8275 92.4035 82.021C93.0221 82.5257 93.4434 82.1916 93.8308 81.791C94.8864 80.6956 96.0171 79.6789 97.0013 78.5072C98.9866 76.1433 100.725 73.6196 102.267 70.9483C103.799 68.2987 105.046 65.5366 106.055 62.6438C106.898 60.229 107.758 57.8313 108.223 55.3088C108.513 53.7365 108.917 52.192 109.111 50.5955C109.427 48.0234 109.872 45.4683 109.66 42.7304Z" fill="#3E3400"/>
<path d="M47.9992 27.7047C47.9351 28.0121 47.7329 28.282 47.3419 28.23C47.0332 28.1888 46.6361 28.1138 46.6252 27.6877C46.6143 27.2411 47.0174 27.0801 47.3407 27.0632C47.6397 27.0474 48.0089 27.189 47.9992 27.7047Z" fill="#3E3400"/>
<path d="M51.7371 103.155C52.3061 103.175 52.9574 103.129 53.6123 103.375C54.4367 103.687 54.8895 104.32 54.9379 105.08C54.9791 105.721 54.6183 106.337 53.8678 106.588C53.4889 106.714 53.3835 106.989 53.7745 107.301C54.3641 107.77 54.7273 108.428 55.1437 109.039C55.4149 109.436 55.1449 109.668 54.8314 109.617C54.3108 109.533 53.7164 109.524 53.432 108.884C53.2383 108.448 52.9368 108.057 52.6669 107.658C52.5398 107.469 52.403 107.255 52.2153 107.146C51.9429 106.987 51.6233 106.87 51.2929 107.02C50.9612 107.17 51.1306 107.471 51.1161 107.703C51.0895 108.14 51.1149 108.58 51.1076 109.02C51.0992 109.542 50.6948 109.688 50.3208 109.624C49.9903 109.568 49.7288 109.431 49.7929 108.839C49.9443 107.435 49.8619 106.004 49.8728 104.585C49.8849 102.96 49.6973 103.169 51.3352 103.155C51.4381 103.154 51.5422 103.155 51.7371 103.155ZM52.1814 104.366C52.1814 104.373 52.1802 104.379 52.1802 104.386C52.0519 104.386 51.9199 104.402 51.794 104.384C51.2699 104.304 51.0459 104.483 51.098 105.047C51.1403 105.515 51.0302 106.021 51.7759 105.952C52.133 105.919 52.5095 105.994 52.8521 105.914C53.1874 105.835 53.5385 105.67 53.6039 105.243C53.6656 104.833 53.3605 104.596 53.0882 104.46C52.8315 104.332 52.4865 104.39 52.1814 104.366Z" fill="#3E3400"/>
<path d="M22.3667 106.434C22.3667 105.582 22.3715 104.73 22.3654 103.878C22.3618 103.446 22.5603 103.165 22.9913 103.165C24.036 103.164 25.0747 103.09 26.1098 103.434C26.8555 103.682 27.2005 104.178 27.3167 104.852C27.4426 105.582 27.2441 106.231 26.4899 106.575C26.0795 106.762 25.9488 106.963 26.3192 107.366C26.7599 107.846 27.1121 108.406 27.5262 108.912C27.6823 109.105 27.6811 109.285 27.5855 109.47C27.491 109.652 27.3119 109.68 27.1158 109.642C26.5335 109.532 26.0541 109.335 25.7648 108.729C25.5275 108.233 25.1207 107.819 24.8011 107.36C24.5336 106.977 24.145 106.966 23.7637 107.049C23.3375 107.143 23.455 107.527 23.455 107.819C23.4538 108.124 23.4308 108.453 23.5312 108.729C23.6535 109.063 23.5203 109.293 23.3339 109.483C23.1463 109.673 22.892 109.591 22.6342 109.528C22.219 109.427 22.3824 109.128 22.3763 108.912C22.3545 108.088 22.3667 107.261 22.3667 106.434ZM24.4936 105.947C24.8132 105.947 25.0469 105.968 25.2757 105.942C25.6304 105.901 26.0045 105.849 26.0904 105.403C26.1873 104.907 25.9003 104.65 25.4851 104.47C25.111 104.308 24.7237 104.439 24.3472 104.383C23.6329 104.278 23.4126 104.566 23.4271 105.285C23.4489 106.25 24.1293 105.858 24.4936 105.947Z" fill="#3E3400"/>
<path d="M60.0765 108.281C60.4033 108.969 60.2556 109.599 59.5172 109.603C58.6673 109.607 58.855 108.885 58.8586 108.249C58.8683 106.815 59.0196 105.373 58.7666 103.938C58.6819 103.46 59.0317 103.166 59.5014 103.168C60.0183 103.17 60.2895 103.496 60.2629 104.013C60.2423 104.423 60.1672 104.83 60.1261 105.239C60.1079 105.421 60.1019 105.63 60.3028 105.709C60.4784 105.778 60.597 105.6 60.6575 105.484C60.9977 104.835 61.6478 104.455 62.0352 103.839C62.3705 103.305 62.908 103.063 63.5617 103.151C63.7348 103.174 63.96 103.095 64.0435 103.3C64.1259 103.503 64.0048 103.687 63.8559 103.837C63.3269 104.368 62.8063 104.909 62.2616 105.423C62.0122 105.659 61.9638 105.809 62.2047 106.115C62.8644 106.952 63.3293 107.927 64.0447 108.732C64.2142 108.923 64.4382 109.183 64.2493 109.489C64.0689 109.782 63.7966 109.569 63.5617 109.587C62.4734 109.674 62.3209 108.706 61.8524 108.097C61.7785 108.001 61.7858 107.833 61.7011 107.76C61.4105 107.51 61.4819 106.799 60.8609 106.995C60.2556 107.187 60.2338 107.789 60.0765 108.281Z" fill="#3E3400"/>
<path d="M36.9694 106.488C37.0953 108.661 35.4428 109.983 33.2069 109.66C32.0374 109.491 30.8051 107.77 31.0036 106.579C31.1029 105.988 31.0762 105.395 31.3668 104.803C32.121 103.269 33.4841 102.955 34.662 103.19C35.9646 103.45 36.9585 104.814 36.9681 106.177C36.9694 106.281 36.9694 106.384 36.9694 106.488ZM32.3074 106.401C32.3074 106.556 32.3062 106.711 32.3074 106.866C32.3219 108.136 33.5991 108.947 34.7237 108.4C35.5154 108.015 35.9319 106.757 35.6183 105.731C35.4089 105.043 35.1402 104.474 34.2855 104.374C33.0785 104.231 32.0883 105.037 32.3074 106.401Z" fill="#3E3400"/>
<path d="M67.8678 106.445C67.8424 105.598 67.9489 104.749 67.8448 103.898C67.794 103.484 67.9526 103.116 68.5518 103.143C69.5844 103.189 70.6207 103.159 71.6545 103.154C72.1194 103.151 72.5201 103.329 72.5031 103.811C72.4886 104.225 72.1593 104.433 71.6787 104.398C71.0359 104.351 70.3858 104.404 69.7406 104.38C69.2479 104.362 69.1208 104.598 69.1292 105.042C69.1377 105.468 69.1474 105.82 69.7273 105.797C70.3725 105.772 71.0202 105.801 71.6666 105.789C72.0431 105.782 72.2477 105.908 72.2489 106.319C72.2501 106.714 72.0819 106.882 71.6896 106.876C71.0686 106.865 70.4464 106.907 69.8278 106.865C69.1825 106.82 69.1244 107.169 69.1256 107.678C69.1268 108.165 69.2007 108.475 69.7963 108.444C70.519 108.408 71.2441 108.448 71.9681 108.431C72.4014 108.421 72.5491 108.604 72.5673 109.03C72.5867 109.49 72.3542 109.519 71.9995 109.521C70.8398 109.524 69.6788 109.56 68.5191 109.568C68.053 109.57 67.846 109.329 67.8618 108.844C67.886 108.045 67.8678 107.245 67.8678 106.445Z" fill="#3E3400"/>
<path d="M42.2483 105.814C42.2483 106.408 42.2399 107.004 42.2507 107.598C42.2641 108.274 42.6817 108.622 43.4165 108.589C44.1066 108.559 44.4722 108.143 44.4576 107.5C44.431 106.286 44.4431 105.071 44.4419 103.856C44.4407 103.428 44.6429 103.183 45.0847 103.156C45.4745 103.132 45.8123 103.306 45.805 103.68C45.7747 105.143 45.9527 106.607 45.7045 108.071C45.5387 109.054 44.8281 109.409 44.0569 109.635C43.5848 109.774 43.017 109.724 42.5207 109.623C41.3876 109.394 40.9022 108.679 40.8586 107.398C40.8198 106.27 40.9796 105.137 40.7181 104.015C40.5862 103.453 40.9603 103.184 41.4506 103.173C41.9203 103.163 42.2883 103.356 42.2592 103.954C42.2277 104.572 42.252 105.194 42.252 105.814C42.2507 105.814 42.2495 105.814 42.2483 105.814Z" fill="#3E3400"/>
<path d="M89.2628 109.52C88.8052 109.428 88.3379 109.395 88.2423 108.734C88.1636 108.196 87.7871 108.112 87.2157 108.041C86.1141 107.903 85.4349 108.105 85.0911 109.24C84.9955 109.555 84.4786 109.613 84.1263 109.453C83.7474 109.281 83.9568 108.987 84.0549 108.728C84.6904 107.051 85.3175 105.371 85.9603 103.697C86.0814 103.382 86.2436 103.114 86.683 103.14C87.1067 103.164 87.4409 103.275 87.5946 103.686C87.9663 104.681 88.4372 105.631 88.7604 106.652C88.9916 107.384 89.3391 108.107 89.6804 108.812C89.9226 109.312 89.7543 109.471 89.2628 109.52ZM86.8089 107.035C87.4832 107.041 87.6806 106.872 87.4433 106.389C87.2811 106.059 87.1418 105.76 87.16 105.389C87.1697 105.187 87.0414 105.061 86.8392 105.02C86.5426 104.959 86.5245 105.228 86.4337 105.385C86.3053 105.608 86.4252 105.875 86.2908 106.125C85.9071 106.84 86.0281 107.028 86.8089 107.035Z" fill="#3E3400"/>
<path d="M76.4462 106.257C76.4462 105.455 76.4644 104.653 76.4402 103.852C76.4256 103.373 76.5588 103.134 77.0903 103.142C77.5914 103.151 77.6931 103.396 77.6883 103.827C77.675 105.043 77.7355 106.261 77.6653 107.473C77.6169 108.294 77.9195 108.529 78.6834 108.446C79.1943 108.392 79.7172 108.447 80.2341 108.433C80.6518 108.421 80.7922 108.693 80.7668 109.012C80.7426 109.318 80.5731 109.62 80.1809 109.572C79.1773 109.448 78.1701 109.526 77.1665 109.527C76.6375 109.528 76.4172 109.371 76.439 108.817C76.4717 107.965 76.4462 107.11 76.4462 106.257Z" fill="#3E3400"/>
<path d="M28.581 91.3231C28.581 90.9346 28.5858 90.546 28.5785 90.1575C28.5761 90.0147 28.6209 89.8319 28.4018 89.7895C28.2093 89.752 28.1367 89.8791 28.0641 90.0292C27.8207 90.5303 27.5859 91.0363 27.3123 91.5192C27.0859 91.9198 26.7724 92.1656 26.3184 91.7867C26.1489 91.6451 26.0787 91.5216 26.2288 91.2711C26.8765 90.1878 27.4987 89.0887 28.0979 87.9764C28.2711 87.6544 28.5132 87.3579 28.8219 87.393C29.0713 87.4208 29.2722 87.7331 29.3751 88.0672C29.6354 88.9084 29.4223 89.7605 29.5143 90.5993C29.5361 90.799 29.3691 91.1077 29.7141 91.1682C30.0385 91.2251 30.0325 90.8898 30.1317 90.7094C30.3993 90.2277 30.6656 89.7411 30.8835 89.2352C31.0614 88.8237 31.3387 88.7389 31.6752 88.9471C32.0009 89.148 32.0469 89.3877 31.7926 89.7774C31.1413 90.7772 30.5651 91.8266 29.9852 92.87C29.8182 93.169 29.6451 93.5599 29.3037 93.451C28.9514 93.3384 28.5773 93.0649 28.587 92.5638C28.5955 92.1498 28.5882 91.7347 28.5882 91.3207C28.587 91.3231 28.5834 91.3231 28.581 91.3231Z" fill="#3E3400"/>
<path d="M80.7756 93.9764C79.3652 94.0792 78.4404 92.3871 78.329 91.0593C78.2333 89.9131 79.5964 88.7487 80.8724 88.6894C82.0273 88.6349 83.4219 90.2145 83.4316 91.6597C83.4388 92.8071 82.083 93.9788 80.7756 93.9764ZM80.8228 89.7751C79.8979 89.7702 79.3991 90.2326 79.3943 91.0968C79.3894 91.9514 80.2368 93.0347 80.9208 93.0492C81.6508 93.0649 82.3505 92.3774 82.3517 91.6451C82.3517 90.6817 81.6145 89.7799 80.8228 89.7751Z" fill="#3E3400"/>
<path d="M70.5905 97.8529C70.1644 97.8735 69.9925 97.7694 69.915 97.4474C69.599 96.1208 69.2661 94.7955 68.7613 93.5245C68.6124 93.1505 68.8872 93.0065 69.0773 92.9448C70.0167 92.6446 70.9706 92.394 71.9234 92.1362C72.2018 92.0612 72.3616 92.2706 72.4839 92.463C72.6485 92.7221 72.387 92.86 72.2417 92.946C71.7127 93.2607 71.1002 93.3624 70.5106 93.4907C70.1426 93.5705 69.8061 93.5839 69.961 94.0801C70.093 94.505 70.3714 94.7761 70.8302 94.5316C71.2684 94.2968 71.7732 94.3016 72.203 94.0825C72.5395 93.9107 72.7248 94.0027 72.8749 94.3137C73.0637 94.7035 72.7696 94.8185 72.5165 94.9129C71.9742 95.115 71.4161 95.2687 70.8726 95.4805C70.185 95.748 70.6583 96.0942 70.7019 96.3956C70.7648 96.8205 71.0239 96.8531 71.381 96.6679C71.9028 96.398 72.479 96.2794 73.0504 96.1644C73.4051 96.093 73.7174 96.283 73.7489 96.605C73.778 96.8967 73.4935 97.0625 73.1654 97.0867C72.3931 97.1448 71.72 97.5612 70.973 97.7198C70.8011 97.7561 70.6401 97.8348 70.5905 97.8529Z" fill="#3E3400"/>
<path d="M35.2848 95.9956C34.2098 96.044 32.9266 95.1036 32.9448 94.3531C32.952 94.0348 32.7293 93.5494 33.2583 93.4635C33.728 93.3872 33.9701 93.7963 33.9846 94.1716C34.0101 94.8094 34.4774 94.9014 34.8986 95.0382C35.2231 95.1435 35.6105 95.135 35.7739 94.7622C35.9046 94.4645 35.6347 94.2563 35.4337 94.0747C35.0596 93.737 34.6541 93.432 34.297 93.0786C33.8624 92.6489 33.6481 92.1284 34.0428 91.5704C34.4338 91.0149 34.9192 90.5912 35.6879 90.8636C36.4094 91.1177 37.1576 91.309 37.4542 92.1635C37.5619 92.4734 37.7241 92.7857 37.3828 92.9793C36.9857 93.2045 36.706 92.9454 36.5148 92.5968C36.3816 92.356 36.3283 92.074 36.0221 91.9457C35.677 91.8016 35.2884 91.6201 35.0488 91.9832C34.8284 92.3172 35.1674 92.5944 35.4119 92.8002C35.7763 93.1064 36.2327 93.2662 36.5281 93.7019C36.8719 94.2103 36.9288 94.686 36.6588 95.2016C36.3755 95.7402 35.9264 96.044 35.2848 95.9956Z" fill="#3E3400"/>
<path d="M59.1978 96.2798C59.1978 95.8392 59.1978 95.3999 59.1978 94.9593C59.1978 94.6748 59.159 94.3238 59.5585 94.3165C59.9617 94.3093 60.2413 94.5816 60.2582 94.9811C60.2934 95.8392 60.2788 96.701 60.28 97.5604C60.2825 99.0637 58.6772 100.024 57.2717 99.405C56.6652 99.1388 56.2863 98.7115 56.2742 98.1051C56.2549 97.1005 56.0091 96.114 56.0817 95.1033C56.106 94.7644 56.1495 94.5719 56.5502 94.5961C56.8953 94.6167 57.1737 94.6506 57.1725 95.09C57.1688 95.8925 57.164 96.6962 57.1749 97.4987C57.1858 98.2661 57.5453 98.6534 58.2087 98.6437C58.9666 98.6316 59.1917 98.3786 59.1978 97.5229C59.2002 97.1089 59.1978 96.6938 59.1978 96.2798Z" fill="#3E3400"/>
<path d="M86.2015 84.9932C86.4073 85.0004 86.5199 85.1614 86.6192 85.2994C86.7633 85.4991 86.7112 85.7327 86.4957 85.8247C86.0321 86.0256 85.8045 86.4965 85.3602 86.7313C85.0019 86.9189 84.9292 87.3002 85.2452 87.6161C85.5091 87.88 85.802 88.0506 86.1434 87.6439C86.3698 87.3752 86.7039 87.2021 86.9582 86.954C87.1942 86.7228 87.3867 86.5909 87.6385 86.9274C87.8661 87.2312 87.8588 87.512 87.5489 87.725C87.1313 88.0107 86.5115 88.1838 86.4303 88.6946C86.3432 89.2477 87.0054 89.4813 87.3225 89.865C87.6639 90.2777 87.3177 90.4569 87.1022 90.6929C86.8383 90.9822 86.595 90.8902 86.3904 90.63C85.5575 89.566 84.7864 88.4525 83.8579 87.4624C83.6617 87.2542 83.669 86.9673 83.9051 86.7761C84.6169 86.1987 85.3432 85.6395 86.0647 85.0743C86.1071 85.0416 86.1543 85.021 86.2015 84.9932Z" fill="#3E3400"/>
<path d="M42.9964 94.022C42.109 93.6674 41.9867 94.3488 41.9722 94.8233C41.9468 95.6839 41.4396 96.4126 41.4347 97.2707C41.4335 97.5975 41.1357 97.7755 40.7641 97.7004C40.3234 97.6121 40.298 97.2356 40.419 96.9815C40.8149 96.1463 40.6612 95.1756 41.1357 94.3597C41.4444 93.8296 41.2543 93.452 40.62 93.3551C40.2641 93.3007 39.815 93.2789 39.9505 92.7584C40.091 92.2198 40.58 92.405 40.9226 92.48C41.6369 92.6349 42.3366 92.8552 43.0424 93.0537C43.4043 93.1554 43.8849 93.1978 43.7857 93.7316C43.6864 94.2581 43.1961 93.7848 42.9964 94.022Z" fill="#3E3400"/>
<path d="M51.4911 94.2942C52.0334 94.218 52.6859 94.3765 53.3481 94.4395C53.6362 94.4673 53.767 94.5412 53.7548 94.8474C53.744 95.1451 53.6677 95.357 53.3299 95.3666C53.2016 95.3703 53.0684 95.3727 52.945 95.3449C52.4087 95.2262 52.1593 95.4683 52.2029 95.9815C52.2828 96.9123 52.0225 97.8189 52.037 98.7436C52.0431 99.1382 51.8276 99.4311 51.4438 99.3791C51.0831 99.3295 51.0093 99.0801 51.0722 98.6432C51.2138 97.6591 51.0553 96.646 51.2611 95.6523C51.3482 95.2311 51.1097 95.0302 50.6776 95.0604C50.5238 95.0713 50.3676 95.058 50.2127 95.0604C49.9476 95.064 49.7393 94.9708 49.7345 94.6816C49.7285 94.3911 49.9306 94.2906 50.1982 94.2918C50.5855 94.2954 50.9729 94.2942 51.4911 94.2942Z" fill="#3E3400"/>
<path d="M65.9634 93.5235C66.404 93.5041 66.6207 93.5937 66.6449 93.929C66.6667 94.2388 66.5347 94.4434 66.2103 94.4337C65.4355 94.4095 65.1208 94.6709 65.3871 95.4952C65.6631 96.3473 65.4561 97.2733 65.7067 98.1424C65.8193 98.5333 65.5614 98.7403 65.2309 98.7681C64.8726 98.7984 64.6656 98.5442 64.6426 98.1956C64.5893 97.3786 64.432 96.5737 64.4659 95.7458C64.4985 94.9288 64.2225 94.7557 63.4066 94.8864C63.0919 94.9372 62.6875 95.0232 62.6246 94.5209C62.564 94.0452 62.8848 94.0089 63.2613 93.975C64.2201 93.8854 65.1934 93.8709 65.9634 93.5235Z" fill="#3E3400"/>
<path d="M23.4576 89.6215C23.1538 89.6397 23.0121 89.44 22.8874 89.25C22.7724 89.0744 22.8681 88.9195 22.9976 88.7694C23.862 87.7648 24.7215 86.7565 25.4817 85.6684C25.7214 85.3247 26.0216 85.1951 26.3642 85.505C26.7274 85.8318 26.5422 86.109 26.2771 86.4225C25.4708 87.3751 24.6888 88.347 23.9176 89.3286C23.7796 89.5041 23.6695 89.6458 23.4576 89.6215Z" fill="#3E3400"/>
<path d="M45.6884 98.0077C45.9051 96.8167 46.0165 95.6039 46.008 94.3765C46.0056 94.0134 46.2223 93.7495 46.6556 93.8306C47.0818 93.9105 47.3263 94.1974 47.1968 94.5956C46.8288 95.7261 46.8748 96.9014 46.7706 98.0573C46.7319 98.4773 46.5346 98.7255 46.2029 98.7097C45.8821 98.6952 45.5504 98.4798 45.6884 98.0077Z" fill="#3E3400"/>
<path d="M9.85193 66.0052C10.5892 65.6263 11.2719 65.2886 11.939 64.9243C12.2295 64.7657 12.5261 64.779 12.6653 65.0296C12.807 65.2838 12.8166 65.6045 12.4208 65.7825C11.6133 66.1468 10.824 66.5511 10.025 66.9372C9.72966 67.08 9.39917 67.172 9.13889 67.362C8.82293 67.5932 8.50818 67.7953 8.21764 67.4395C7.94042 67.1018 7.93921 66.6261 8.20554 66.3005C8.70067 65.6917 8.94036 64.9073 9.56502 64.3881C9.64734 64.3191 9.8483 64.1254 9.64129 63.9366C9.4827 63.7938 9.32169 63.8083 9.14858 63.9124C8.62682 64.2271 8.11232 64.5539 7.57604 64.842C7.27097 65.0054 7.0228 64.9461 6.81095 64.5975C6.59183 64.2356 6.77463 63.9947 7.01917 63.9124C8.29633 63.4827 9.38828 62.6609 10.6642 62.2372C10.8785 62.1658 11.1279 61.8511 11.2853 62.2324C11.4015 62.5168 11.7707 62.7335 11.4656 63.1825C10.9935 63.8761 10.5831 64.612 10.0032 65.2257C9.78171 65.4569 9.68729 65.6832 9.85193 66.0052Z" fill="#3E3400"/>
<path d="M3.95602 33.2289C5.0516 33.4141 6.07696 33.5872 7.10232 33.7615C7.25243 33.7869 7.40255 33.8474 7.55024 33.8401C7.95578 33.8232 8.40612 33.8329 8.49207 34.2928C8.58044 34.7649 8.12284 35.0977 7.78267 35.1873C6.99579 35.3955 6.33118 35.8978 5.52615 36.0467C5.36756 36.0757 5.09034 36.135 5.1206 36.4243C5.1545 36.7572 5.42567 36.6168 5.60362 36.6434C6.22949 36.739 6.859 36.8141 7.48487 36.9145C7.75846 36.9581 8.11679 36.9956 8.04052 37.3926C7.96789 37.7703 7.64587 37.97 7.28149 37.8635C6.05275 37.5076 4.74895 37.6638 3.52263 37.2764C3.24057 37.1869 2.97182 37.2038 2.94034 36.8141C2.91129 36.4582 3.04809 36.1847 3.34468 36.0467C3.96329 35.7562 4.60247 35.5081 5.23561 35.2502C5.39782 35.1837 5.57336 35.1534 5.73679 35.0893C5.93411 35.0118 6.15928 34.8726 6.12296 34.6644C6.08059 34.4235 5.80942 34.4611 5.60483 34.4599C5.0177 34.4562 4.41967 34.5264 3.86039 34.2831C3.55774 34.1512 3.34226 33.9309 3.42458 33.5593C3.49479 33.2277 3.75749 33.2156 3.95602 33.2289Z" fill="#3E3400"/>
<path d="M7.10125 60.8764C5.66065 61.0216 4.70187 59.6829 4.71398 58.521C4.73214 56.8022 5.82771 56.007 7.64843 55.921C8.88322 55.8617 9.92795 57.077 9.92553 58.4919C9.92432 59.8524 8.71374 60.874 7.10125 60.8764ZM7.14846 59.7919C7.27799 59.7919 7.40994 59.8124 7.53463 59.7882C8.7779 59.5486 9.59625 58.527 8.76822 57.48C8.25372 56.8288 7.58064 56.939 6.88092 57.1363C6.17273 57.336 5.53597 57.9811 5.58318 58.527C5.64492 59.2508 6.32526 59.8028 7.14846 59.7919Z" fill="#3E3400"/>
<path d="M7.60355 42.1355C7.57449 42.627 7.34206 42.8557 6.97768 42.9986C5.72836 43.4888 4.48388 43.9923 3.23456 44.4813C2.93797 44.5975 2.60022 44.7815 2.3811 44.3736C2.17409 43.9887 2.50458 43.7151 2.74185 43.6316C3.59047 43.3338 3.59289 42.7068 3.58805 41.977C3.58442 41.4626 3.45004 41.1442 2.96097 40.9869C2.69948 40.9034 2.53727 40.6843 2.38836 40.4821C2.2661 40.3151 2.27215 40.0888 2.41379 39.9024C2.56148 39.7075 2.71159 39.814 2.88591 39.8806C4.30714 40.4192 5.73562 40.9385 7.15442 41.4819C7.46191 41.6018 7.64834 41.8547 7.60355 42.1355ZM4.48751 42.1912C4.49599 42.4938 4.4972 42.9392 4.84584 42.7976C5.19812 42.6548 5.87242 42.7226 5.85547 42.1779C5.84094 41.718 5.22597 41.7845 4.88458 41.6708C4.48267 41.5376 4.50325 41.9407 4.48751 42.1912Z" fill="#3E3400"/>
<path d="M15.0564 70.0026C15.192 70.4989 14.7089 70.7095 14.4632 71.0496C13.7792 71.9986 13.0952 72.9475 12.4222 73.9037C12.3047 74.0708 12.1873 74.3589 11.9948 74.147C11.7927 73.9243 11.3762 73.7028 11.6171 73.2719C12.1159 72.3811 12.0057 71.6803 11.2866 70.9976C11.013 70.7374 10.7068 70.8245 10.4126 70.8281C9.99615 70.8342 9.65234 70.695 9.6475 70.2665C9.64266 69.8187 10.0664 69.947 10.3545 69.8877C11.4948 69.6541 12.6316 69.3962 13.7683 69.1457C14.6254 68.9593 15.0503 69.2231 15.0564 70.0026ZM13.8046 70.3694C13.7828 70.229 13.6787 70.0353 13.5383 70.1249C13.1267 70.3875 12.4669 70.2726 12.2829 70.8414C12.1716 71.1852 12.5468 71.3643 12.7793 71.5398C12.8955 71.627 13.7828 70.6199 13.8046 70.3694Z" fill="#3E3400"/>
<path d="M6.92051 47.2762C6.9072 47.2399 6.89751 47.2157 6.89025 47.1903C6.76556 46.7521 6.56339 46.1748 7.25221 46.1566C7.94467 46.1385 7.71708 46.8139 7.7425 47.2266C7.78366 47.9141 7.69407 48.604 7.98946 49.2709C8.13836 49.6074 8.02699 49.9342 7.59118 49.9948C7.17353 50.0529 6.93625 49.8677 6.98468 49.4259C7.04884 48.8376 6.72924 48.7178 6.2329 48.7553C5.31165 48.8255 4.37587 48.8062 3.47278 48.9696C2.97039 49.0603 2.74159 48.8473 2.69438 48.5169C2.63869 48.1259 2.98613 48.0097 3.36383 47.9807C4.40614 47.8984 5.44482 47.7628 6.48834 47.6865C6.80188 47.6635 6.85272 47.4832 6.92051 47.2762Z" fill="#3E3400"/>
<path d="M17.522 73.333C17.7859 73.3887 17.9493 73.6066 18.0849 73.8111C18.2762 74.1004 17.9566 74.2251 17.8065 74.351C17.0462 74.9852 16.2715 75.6037 15.4882 76.2089C15.0524 76.5466 14.9531 76.8407 15.4519 77.2208C15.7558 77.4532 16.0051 77.7594 16.2727 78.0378C16.516 78.2908 16.5886 78.6515 16.3332 78.8476C16.1056 79.0206 15.74 78.9541 15.5161 78.6563C15.027 78.0088 14.5621 77.3394 14.0283 76.7306C13.7426 76.405 13.8782 76.2513 14.1154 76.0516C15.1105 75.2152 16.1032 74.3752 17.1031 73.5448C17.2157 73.4516 17.3719 73.4081 17.522 73.333Z" fill="#3E3400"/>
<path d="M4.19032 54.083C3.8332 54.06 3.58382 53.9898 3.55476 53.5577C3.52692 53.1365 3.78962 53.0227 4.09952 52.9695C5.31737 52.7613 6.53764 52.5725 7.72522 52.2105C7.99881 52.127 8.37893 52.0689 8.50604 52.4744C8.61862 52.8303 8.43098 53.0409 8.08839 53.1692C6.82575 53.6449 5.43722 53.5444 4.19032 54.083Z" fill="#3E3400"/>
<path d="M104.449 61.7281C103.466 61.2875 102.159 61.0539 100.93 60.5855C100.688 60.4935 100.332 60.4645 100.389 60.0638C100.442 59.6898 100.608 59.311 101.004 59.2746C101.848 59.1972 102.587 58.7154 103.442 58.7045C103.618 58.7021 103.902 58.8292 103.938 58.5109C103.973 58.1974 103.67 58.1187 103.475 58.109C102.875 58.0776 102.342 57.8222 101.78 57.6745C101.271 57.5414 101.135 57.1916 101.497 56.7498C101.607 56.6154 101.713 56.5355 101.952 56.6178C103.145 57.0294 104.358 57.3876 105.558 57.7846C105.853 57.8827 106.316 57.9093 106.253 58.3511C106.195 58.7614 106.011 59.2286 105.488 59.2516C104.766 59.2831 104.119 59.6692 103.39 59.6402C103.101 59.6293 102.756 59.6946 102.736 60.0142C102.711 60.4451 103.114 60.203 103.325 60.2684C103.88 60.4427 104.448 60.5819 104.988 60.7937C105.213 60.882 105.426 61.1023 105.32 61.4146C105.214 61.71 105.028 61.8976 104.449 61.7281Z" fill="#3E3400"/>
<path d="M105.458 40.3663C104.949 40.3324 104.104 40.1109 103.696 39.214C103.093 37.8886 103.213 37.1261 104.021 36.3418C104.242 36.1263 104.436 35.8515 104.793 36.1626C105.177 36.4967 105.034 36.8187 104.754 37.0777C104.529 37.2871 104.43 37.5049 104.408 37.7991C104.323 39.001 104.783 39.3932 106.204 39.283C107.654 39.1717 107.845 38.1707 107.499 37.0619C107.413 36.7884 107.162 36.7521 106.921 36.8005C106.698 36.8453 106.554 36.9663 106.644 37.2399C106.757 37.5836 106.706 37.8366 106.267 37.8826C105.849 37.9262 105.724 37.6623 105.677 37.3403C105.622 36.9639 105.718 36.5778 105.56 36.1989C105.517 36.0948 105.655 35.831 105.78 35.7559C106.909 35.0793 108.019 35.6216 108.313 36.9554C108.426 37.4686 108.716 37.9395 108.536 38.5096C108.116 39.8434 107.38 40.3675 105.458 40.3663Z" fill="#3E3400"/>
<path d="M108.611 43.5659C108.611 45.1297 107.632 46.1283 106.114 46.115C104.702 46.1017 103.298 44.9397 103.366 43.6748C103.435 42.3979 104.307 41.1572 106.071 41.1524C107.564 41.1487 108.611 42.1558 108.611 43.5659ZM106.048 42.2332C104.927 42.2332 104.455 42.7234 104.398 43.7426C104.349 44.6322 105.182 44.9312 106.235 45.0147C107.118 45.0849 107.683 44.4761 107.684 43.6349C107.686 42.7973 107.028 42.2332 106.048 42.2332Z" fill="#3E3400"/>
<path d="M104.667 51.4053C106.266 51.4053 107.37 52.3591 107.367 53.7377C107.363 55.2495 106.432 56.2154 104.978 56.2166C103.288 56.2178 102.096 55.2253 102.09 53.8115C102.084 52.4753 103.23 51.4053 104.667 51.4053ZM105.299 55.1526C105.724 55.1926 106.179 54.89 106.386 54.303C106.582 53.7462 106.425 53.2112 105.942 52.865C105.515 52.5576 105.029 52.301 104.472 52.3421C103.77 52.3942 103.304 52.7912 103.073 53.4448C102.873 54.0076 103.108 54.4724 103.547 54.7907C103.989 55.1103 104.543 55.1175 105.299 55.1526Z" fill="#3E3400"/>
<path d="M95.345 73.4589C95.6077 73.4395 95.7227 73.2253 95.8631 73.0474C96.1779 72.6467 96.4975 72.2497 96.8001 71.8394C97.0035 71.5634 97.2154 71.7159 97.3897 71.8321C97.6197 71.9859 97.6294 72.1965 97.4454 72.4277C97.1294 72.8259 96.8679 73.2737 96.5205 73.6417C96.0241 74.1658 96.6137 74.2602 96.8171 74.5035C97.1294 74.8751 97.4127 74.7189 97.6391 74.4091C97.9683 73.9576 98.2674 73.4831 98.5882 73.0256C98.7625 72.7775 98.9538 72.6128 99.2794 72.8477C99.5711 73.0595 99.5651 73.3209 99.3944 73.5497C98.8145 74.3268 98.1935 75.0736 97.61 75.8482C97.3752 76.1605 97.1379 76.0939 96.8921 75.9196C95.7941 75.145 94.7022 74.3607 93.609 73.5787C93.3488 73.3923 93.3245 73.1999 93.5291 72.9288C94.08 72.1977 94.5945 71.4388 95.1465 70.7089C95.3075 70.4959 95.5218 70.1957 95.8438 70.4523C96.1464 70.6932 96.0605 70.9752 95.8317 71.256C95.5109 71.6506 95.2336 72.0803 94.9104 72.4736C94.7555 72.6613 94.7434 72.8513 94.8015 73.0498C94.8765 73.3052 95.1586 73.3185 95.345 73.4589Z" fill="#3E3400"/>
<path d="M102.637 66.9355C102.449 66.9597 102.296 66.8702 102.128 66.8012C101.075 66.3679 100.009 65.9648 98.962 65.5206C98.6897 65.4056 98.2127 65.3354 98.4064 64.8609C98.5795 64.4385 98.9705 64.3743 99.387 64.5135C99.4826 64.5462 99.571 64.5995 99.663 64.643C100.506 65.0401 100.506 65.0401 100.86 64.1165C101.248 63.1071 101.242 63.1216 100.26 62.7282C99.9438 62.6023 99.4196 62.5624 99.6896 61.9644C99.9087 61.4791 100.209 61.6062 100.599 61.7696C101.694 62.2307 102.813 62.6398 103.922 63.0695C104.309 63.2196 104.549 63.5016 104.366 63.9023C104.203 64.2606 103.872 64.1964 103.573 64.0136C103.509 63.9737 103.433 63.9531 103.363 63.9241C102.117 63.4024 101.8 63.5585 101.416 64.8742C101.342 65.1272 101.41 65.287 101.67 65.3947C102.089 65.5678 102.49 65.7857 102.906 65.9648C103.16 66.0737 103.417 66.2008 103.301 66.5143C103.199 66.7818 102.978 66.984 102.637 66.9355Z" fill="#3E3400"/>
<path d="M99.6179 71.4518C98.1954 71.3768 97.0018 70.6784 96.5599 69.399C96.1968 68.3471 97.1858 66.7119 98.6046 66.6393C98.8612 66.626 99.067 66.6925 99.1203 66.983C99.1627 67.213 99.0888 67.3667 98.8552 67.4624C98.5731 67.5773 98.3044 67.725 98.0368 67.8715C97.7826 68.0107 97.6156 68.191 97.5599 68.5154C97.417 69.3445 97.8516 69.9061 99.0646 70.3649C99.7474 70.6227 100.293 70.3891 100.7 69.7318C100.991 69.2622 100.74 68.9378 100.447 68.6582C100.025 68.2552 100.402 68.0736 100.631 67.8751C100.9 67.6403 101.118 67.6512 101.373 67.9961C102.02 68.87 101.765 69.6919 101.297 70.492C100.902 71.1613 100.194 71.3296 99.6179 71.4518Z" fill="#3E3400"/>
<path d="M103.4 35.5132C103.155 35.2603 102.938 35.0218 103.174 34.6297C103.43 34.2012 103.83 33.9095 104.169 33.5609C104.514 33.2062 104.554 32.992 103.997 32.8443C103.56 32.7281 103.117 32.5805 102.728 32.3577C102.422 32.181 102.123 31.801 102.314 31.4681C102.461 31.2139 102.854 31.4161 103.157 31.5008C104.05 31.7538 104.884 32.2452 105.871 32.1568C106.261 32.1217 106.613 32.0576 106.969 31.8833C107.27 31.7356 107.562 31.7985 107.696 32.1943C107.808 32.5236 107.677 32.8492 107.418 32.8637C105.733 32.9581 104.894 34.269 103.83 35.2627C103.724 35.3632 103.571 35.4164 103.4 35.5132Z" fill="#3E3400"/>
<path d="M93.3756 74.2586C93.4023 74.4329 93.3151 74.5564 93.1928 74.6617C92.5294 75.2318 92.7679 75.6978 93.3441 76.1541C93.9579 76.6407 94.5596 77.143 95.1515 77.655C95.4409 77.9055 95.7556 78.1319 95.3428 78.5991C94.9106 79.0881 94.7109 78.7419 94.4312 78.4756C93.74 77.822 93.0233 77.195 92.349 76.5245C92.0077 76.1855 91.728 76.1734 91.4677 76.5571C91.3334 76.7544 91.1881 76.9154 90.9714 77.0001C90.6978 77.1079 90.5441 76.9166 90.3843 76.7435C90.1954 76.539 90.3698 76.4216 90.4872 76.2921C91.1942 75.5114 91.9193 74.7464 92.6021 73.9451C92.7849 73.7309 92.958 73.766 93.1383 73.8192C93.3248 73.8785 93.3974 74.0565 93.3756 74.2586Z" fill="#3E3400"/>
<path d="M108.283 48.4099C108.283 48.514 108.326 48.8057 108.275 49.0805C107.989 50.6153 107.976 50.654 105.901 50.441C105.129 50.3623 104.325 50.3659 103.582 50.0452C103.305 49.9253 102.782 50.0561 102.905 49.5489C103.013 49.1059 103.392 48.8336 103.914 48.9316C104.784 49.0962 105.663 49.2257 106.521 49.4412C107.085 49.5828 107.259 49.2717 107.358 48.8626C107.452 48.4704 107.504 48.0601 107.518 47.6571C107.528 47.3363 107.604 47.1874 107.955 47.2056C108.369 47.2274 108.407 47.4356 108.323 47.7696C108.286 47.9161 108.301 48.0759 108.283 48.4099Z" fill="#3E3400"/>
</svg>
